<svg width="552" height="153" viewBox="0 0 552 153" fill="none" xmlns="http://www.w3.org/2000/svg">
<g filter="url(#filter0_dddddd_1002_3)">
<mask id="path-1-outside-1_1002_3" maskUnits="userSpaceOnUse" x="50" y="50" width="452" height="52" fill="black">
<rect fill="white" x="50" y="50" width="452" height="52"/>
<path d="M51.4395 100V52.75H57.5918L105.057 92.7095H105.119V52.75H111.025V100H104.873L57.4072 59.7021H57.3457V100H51.4395ZM143.755 100.984C139.141 100.984 135.347 100.667 132.374 100.031C129.4 99.4155 127.072 98.2671 125.391 96.5854C123.729 94.9038 122.561 92.4839 121.884 89.3257C121.228 86.1675 120.899 82.0557 120.899 76.9902V75.7598C120.899 71.5762 121.104 68.0693 121.515 65.2393C121.925 62.3887 122.632 60.0713 123.637 58.2871C124.642 56.5029 126.006 55.1392 127.729 54.1958C129.472 53.2524 131.656 52.6167 134.281 52.2886C136.906 51.9399 140.064 51.7656 143.755 51.7656H156.152C159.844 51.7656 163.002 51.9399 165.627 52.2886C168.252 52.6167 170.426 53.2524 172.148 54.1958C173.892 55.1392 175.266 56.5029 176.271 58.2871C177.275 60.0713 177.983 62.3887 178.393 65.2393C178.803 68.0693 179.008 71.5762 179.008 75.7598V76.9902C179.008 82.0557 178.67 86.1675 177.993 89.3257C177.337 92.4839 176.168 94.9038 174.486 96.5854C172.825 98.2671 170.508 99.4155 167.534 100.031C164.561 100.667 160.767 100.984 156.152 100.984H143.755ZM143.755 95.8779H156.152C159.085 95.8779 161.556 95.7754 163.566 95.5703C165.576 95.3652 167.206 94.9243 168.457 94.2476C169.729 93.5708 170.692 92.5454 171.349 91.1714C172.025 89.7974 172.487 87.9619 172.733 85.665C172.979 83.3682 173.102 80.4766 173.102 76.9902V75.7598C173.102 72.1504 172.979 69.1768 172.733 66.8389C172.487 64.501 172.025 62.6553 171.349 61.3018C170.692 59.9482 169.729 58.9639 168.457 58.3486C167.206 57.7129 165.576 57.313 163.566 57.1489C161.556 56.9644 159.085 56.8721 156.152 56.8721H143.755C140.823 56.8721 138.352 56.9644 136.342 57.1489C134.332 57.313 132.691 57.7129 131.42 58.3486C130.169 58.9639 129.205 59.9482 128.528 61.3018C127.872 62.6553 127.421 64.501 127.175 66.8389C126.929 69.1768 126.806 72.1504 126.806 75.7598V76.9902C126.806 80.4766 126.929 83.3682 127.175 85.665C127.421 87.9619 127.872 89.7974 128.528 91.1714C129.205 92.5454 130.169 93.5708 131.42 94.2476C132.691 94.9243 134.332 95.3652 136.342 95.5703C138.352 95.7754 140.823 95.8779 143.755 95.8779ZM189.006 100V52.75H197.804L226.381 91.2944L254.528 52.75H263.326V100H257.42V58.1025L229.211 96.8931H223.859L194.912 58.1025V100H189.006ZM275.262 100V52.75H281.168V100H275.262ZM292.98 100V52.75H299.133L346.598 92.7095H346.66V52.75H352.566V100H346.414L298.948 59.7021H298.887V100H292.98ZM385.296 100.984C380.682 100.984 376.888 100.667 373.915 100.031C370.941 99.4155 368.613 98.2671 366.932 96.5854C365.271 94.9038 364.102 92.4839 363.425 89.3257C362.769 86.1675 362.44 82.0557 362.44 76.9902V75.7598C362.44 71.5762 362.646 68.0693 363.056 65.2393C363.466 62.3887 364.173 60.0713 365.178 58.2871C366.183 56.5029 367.547 55.1392 369.27 54.1958C371.013 53.2524 373.197 52.6167 375.822 52.2886C378.447 51.9399 381.605 51.7656 385.296 51.7656H397.693C401.385 51.7656 404.543 51.9399 407.168 52.2886C409.793 52.6167 411.967 53.2524 413.689 54.1958C415.433 55.1392 416.807 56.5029 417.812 58.2871C418.816 60.0713 419.524 62.3887 419.934 65.2393C420.344 68.0693 420.549 71.5762 420.549 75.7598V76.9902C420.549 82.0557 420.211 86.1675 419.534 89.3257C418.878 92.4839 417.709 94.9038 416.027 96.5854C414.366 98.2671 412.049 99.4155 409.075 100.031C406.102 100.667 402.308 100.984 397.693 100.984H385.296ZM385.296 95.8779H397.693C400.626 95.8779 403.097 95.7754 405.107 95.5703C407.117 95.3652 408.747 94.9243 409.998 94.2476C411.27 93.5708 412.233 92.5454 412.89 91.1714C413.566 89.7974 414.028 87.9619 414.274 85.665C414.52 83.3682 414.643 80.4766 414.643 76.9902V75.7598C414.643 72.1504 414.52 69.1768 414.274 66.8389C414.028 64.501 413.566 62.6553 412.89 61.3018C412.233 59.9482 411.27 58.9639 409.998 58.3486C408.747 57.7129 407.117 57.313 405.107 57.1489C403.097 56.9644 400.626 56.8721 397.693 56.8721H385.296C382.364 56.8721 379.893 56.9644 377.883 57.1489C375.873 57.313 374.232 57.7129 372.961 58.3486C371.71 58.9639 370.746 59.9482 370.069 61.3018C369.413 62.6553 368.962 64.501 368.716 66.8389C368.47 69.1768 368.347 72.1504 368.347 75.7598V76.9902C368.347 80.4766 368.47 83.3682 368.716 85.665C368.962 87.9619 369.413 89.7974 370.069 91.1714C370.746 92.5454 371.71 93.5708 372.961 94.2476C374.232 94.9243 375.873 95.3652 377.883 95.5703C379.893 95.7754 382.364 95.8779 385.296 95.8779ZM430.547 52.75H462.17C466.784 52.75 470.496 52.9551 473.306 53.3652C476.136 53.7754 478.279 54.4829 479.735 55.4878C481.191 56.4927 482.175 57.8667 482.688 59.6099C483.201 61.353 483.457 63.5576 483.457 66.2236V67.4541C483.457 69.915 483.16 72.0376 482.565 73.8218C481.991 75.5854 480.873 77.021 479.212 78.1284C477.551 79.2153 475.09 79.9844 471.829 80.4355L482.104 100H476.197L466.138 80.8662C465.728 80.8867 465.297 80.897 464.846 80.897C464.416 80.897 463.964 80.897 463.493 80.897H436.453V100H430.547V52.75ZM436.453 75.7905H462.57C466.077 75.7905 468.835 75.6777 470.845 75.4521C472.875 75.2061 474.362 74.7856 475.305 74.1909C476.269 73.5962 476.884 72.7554 477.151 71.6685C477.417 70.5815 477.551 69.1768 477.551 67.4541V66.2236C477.551 64.2754 477.366 62.7373 476.997 61.6094C476.628 60.4814 475.89 59.6509 474.782 59.1177C473.675 58.5845 472.024 58.2461 469.83 58.1025C467.635 57.9385 464.703 57.8564 461.032 57.8564H436.453V75.7905ZM494.654 100V52.75H500.561V100H494.654Z"/>
</mask>
<path d="M51.4395 100V52.75H57.5918L105.057 92.7095H105.119V52.75H111.025V100H104.873L57.4072 59.7021H57.3457V100H51.4395ZM143.755 100.984C139.141 100.984 135.347 100.667 132.374 100.031C129.4 99.4155 127.072 98.2671 125.391 96.5854C123.729 94.9038 122.561 92.4839 121.884 89.3257C121.228 86.1675 120.899 82.0557 120.899 76.9902V75.7598C120.899 71.5762 121.104 68.0693 121.515 65.2393C121.925 62.3887 122.632 60.0713 123.637 58.2871C124.642 56.5029 126.006 55.1392 127.729 54.1958C129.472 53.2524 131.656 52.6167 134.281 52.2886C136.906 51.9399 140.064 51.7656 143.755 51.7656H156.152C159.844 51.7656 163.002 51.9399 165.627 52.2886C168.252 52.6167 170.426 53.2524 172.148 54.1958C173.892 55.1392 175.266 56.5029 176.271 58.2871C177.275 60.0713 177.983 62.3887 178.393 65.2393C178.803 68.0693 179.008 71.5762 179.008 75.7598V76.9902C179.008 82.0557 178.67 86.1675 177.993 89.3257C177.337 92.4839 176.168 94.9038 174.486 96.5854C172.825 98.2671 170.508 99.4155 167.534 100.031C164.561 100.667 160.767 100.984 156.152 100.984H143.755ZM143.755 95.8779H156.152C159.085 95.8779 161.556 95.7754 163.566 95.5703C165.576 95.3652 167.206 94.9243 168.457 94.2476C169.729 93.5708 170.692 92.5454 171.349 91.1714C172.025 89.7974 172.487 87.9619 172.733 85.665C172.979 83.3682 173.102 80.4766 173.102 76.9902V75.7598C173.102 72.1504 172.979 69.1768 172.733 66.8389C172.487 64.501 172.025 62.6553 171.349 61.3018C170.692 59.9482 169.729 58.9639 168.457 58.3486C167.206 57.7129 165.576 57.313 163.566 57.1489C161.556 56.9644 159.085 56.8721 156.152 56.8721H143.755C140.823 56.8721 138.352 56.9644 136.342 57.1489C134.332 57.313 132.691 57.7129 131.42 58.3486C130.169 58.9639 129.205 59.9482 128.528 61.3018C127.872 62.6553 127.421 64.501 127.175 66.8389C126.929 69.1768 126.806 72.1504 126.806 75.7598V76.9902C126.806 80.4766 126.929 83.3682 127.175 85.665C127.421 87.9619 127.872 89.7974 128.528 91.1714C129.205 92.5454 130.169 93.5708 131.42 94.2476C132.691 94.9243 134.332 95.3652 136.342 95.5703C138.352 95.7754 140.823 95.8779 143.755 95.8779ZM189.006 100V52.75H197.804L226.381 91.2944L254.528 52.75H263.326V100H257.42V58.1025L229.211 96.8931H223.859L194.912 58.1025V100H189.006ZM275.262 100V52.75H281.168V100H275.262ZM292.98 100V52.75H299.133L346.598 92.7095H346.66V52.75H352.566V100H346.414L298.948 59.7021H298.887V100H292.98ZM385.296 100.984C380.682 100.984 376.888 100.667 373.915 100.031C370.941 99.4155 368.613 98.2671 366.932 96.5854C365.271 94.9038 364.102 92.4839 363.425 89.3257C362.769 86.1675 362.44 82.0557 362.44 76.9902V75.7598C362.44 71.5762 362.646 68.0693 363.056 65.2393C363.466 62.3887 364.173 60.0713 365.178 58.2871C366.183 56.5029 367.547 55.1392 369.27 54.1958C371.013 53.2524 373.197 52.6167 375.822 52.2886C378.447 51.9399 381.605 51.7656 385.296 51.7656H397.693C401.385 51.7656 404.543 51.9399 407.168 52.2886C409.793 52.6167 411.967 53.2524 413.689 54.1958C415.433 55.1392 416.807 56.5029 417.812 58.2871C418.816 60.0713 419.524 62.3887 419.934 65.2393C420.344 68.0693 420.549 71.5762 420.549 75.7598V76.9902C420.549 82.0557 420.211 86.1675 419.534 89.3257C418.878 92.4839 417.709 94.9038 416.027 96.5854C414.366 98.2671 412.049 99.4155 409.075 100.031C406.102 100.667 402.308 100.984 397.693 100.984H385.296ZM385.296 95.8779H397.693C400.626 95.8779 403.097 95.7754 405.107 95.5703C407.117 95.3652 408.747 94.9243 409.998 94.2476C411.27 93.5708 412.233 92.5454 412.89 91.1714C413.566 89.7974 414.028 87.9619 414.274 85.665C414.52 83.3682 414.643 80.4766 414.643 76.9902V75.7598C414.643 72.1504 414.52 69.1768 414.274 66.8389C414.028 64.501 413.566 62.6553 412.89 61.3018C412.233 59.9482 411.27 58.9639 409.998 58.3486C408.747 57.7129 407.117 57.313 405.107 57.1489C403.097 56.9644 400.626 56.8721 397.693 56.8721H385.296C382.364 56.8721 379.893 56.9644 377.883 57.1489C375.873 57.313 374.232 57.7129 372.961 58.3486C371.71 58.9639 370.746 59.9482 370.069 61.3018C369.413 62.6553 368.962 64.501 368.716 66.8389C368.47 69.1768 368.347 72.1504 368.347 75.7598V76.9902C368.347 80.4766 368.47 83.3682 368.716 85.665C368.962 87.9619 369.413 89.7974 370.069 91.1714C370.746 92.5454 371.71 93.5708 372.961 94.2476C374.232 94.9243 375.873 95.3652 377.883 95.5703C379.893 95.7754 382.364 95.8779 385.296 95.8779ZM430.547 52.75H462.17C466.784 52.75 470.496 52.9551 473.306 53.3652C476.136 53.7754 478.279 54.4829 479.735 55.4878C481.191 56.4927 482.175 57.8667 482.688 59.6099C483.201 61.353 483.457 63.5576 483.457 66.2236V67.4541C483.457 69.915 483.16 72.0376 482.565 73.8218C481.991 75.5854 480.873 77.021 479.212 78.1284C477.551 79.2153 475.09 79.9844 471.829 80.4355L482.104 100H476.197L466.138 80.8662C465.728 80.8867 465.297 80.897 464.846 80.897C464.416 80.897 463.964 80.897 463.493 80.897H436.453V100H430.547V52.75ZM436.453 75.7905H462.57C466.077 75.7905 468.835 75.6777 470.845 75.4521C472.875 75.2061 474.362 74.7856 475.305 74.1909C476.269 73.5962 476.884 72.7554 477.151 71.6685C477.417 70.5815 477.551 69.1768 477.551 67.4541V66.2236C477.551 64.2754 477.366 62.7373 476.997 61.6094C476.628 60.4814 475.89 59.6509 474.782 59.1177C473.675 58.5845 472.024 58.2461 469.83 58.1025C467.635 57.9385 464.703 57.8564 461.032 57.8564H436.453V75.7905ZM494.654 100V52.75H500.561V100H494.654Z" fill="white"/>
<path d="M51.4395 100H50.4395V101H51.4395V100ZM51.4395 52.75V51.75H50.4395V52.75H51.4395ZM57.5918 52.75L58.2358 51.985L57.9567 51.75H57.5918V52.75ZM105.057 92.7095L104.413 93.4745L104.692 93.7095H105.057V92.7095ZM105.119 92.7095V93.7095H106.119V92.7095H105.119ZM105.119 52.75V51.75H104.119V52.75H105.119ZM111.025 52.75H112.025V51.75H111.025V52.75ZM111.025 100V101H112.025V100H111.025ZM104.873 100L104.225 100.762L104.505 101H104.873V100ZM57.4072 59.7021L58.0544 58.9398L57.7745 58.7021H57.4072V59.7021ZM57.3457 59.7021V58.7021H56.3457V59.7021H57.3457ZM57.3457 100V101H58.3457V100H57.3457ZM51.4395 100H52.4395V52.75H51.4395H50.4395V100H51.4395ZM51.4395 52.75V53.75H57.5918V52.75V51.75H51.4395V52.75ZM57.5918 52.75L56.9478 53.515L104.413 93.4745L105.057 92.7095L105.701 91.9445L58.2358 51.985L57.5918 52.75ZM105.057 92.7095V93.7095H105.119V92.7095V91.7095H105.057V92.7095ZM105.119 92.7095H106.119V52.75H105.119H104.119V92.7095H105.119ZM105.119 52.75V53.75H111.025V52.75V51.75H105.119V52.75ZM111.025 52.75H110.025V100H111.025H112.025V52.75H111.025ZM111.025 100V99H104.873V100V101H111.025V100ZM104.873 100L105.52 99.2377L58.0544 58.9398L57.4072 59.7021L56.76 60.4645L104.225 100.762L104.873 100ZM57.4072 59.7021V58.7021H57.3457V59.7021V60.7021H57.4072V59.7021ZM57.3457 59.7021H56.3457V100H57.3457H58.3457V59.7021H57.3457ZM57.3457 100V99H51.4395V100V101H57.3457V100ZM132.374 100.031L132.583 99.0528L132.576 99.0515L132.374 100.031ZM125.391 96.5854L124.679 97.2882L124.684 97.2926L125.391 96.5854ZM121.884 89.3257L120.905 89.5291L120.906 89.5352L121.884 89.3257ZM121.515 65.2393L122.504 65.3827L122.504 65.3817L121.515 65.2393ZM127.729 54.1958L127.253 53.3163L127.248 53.3187L127.729 54.1958ZM134.281 52.2886L134.405 53.2809L134.412 53.2799L134.281 52.2886ZM165.627 52.2886L165.495 53.2799L165.503 53.2809L165.627 52.2886ZM172.148 54.1958L171.668 55.0729L171.672 55.0753L172.148 54.1958ZM178.393 65.2393L177.403 65.3817L177.403 65.3827L178.393 65.2393ZM177.993 89.3257L177.015 89.1161L177.014 89.1222L177.993 89.3257ZM174.486 96.5854L173.779 95.8783L173.775 95.8827L174.486 96.5854ZM167.534 100.031L167.332 99.0515L167.325 99.0529L167.534 100.031ZM168.457 94.2476L167.987 93.3648L167.981 93.368L168.457 94.2476ZM171.349 91.1714L170.451 90.7295L170.446 90.7404L171.349 91.1714ZM171.349 61.3018L170.449 61.7381L170.454 61.749L171.349 61.3018ZM168.457 58.3486L168.004 59.2401L168.013 59.2445L168.021 59.2488L168.457 58.3486ZM163.566 57.1489L163.474 58.1448L163.485 58.1456L163.566 57.1489ZM136.342 57.1489L136.423 58.1457L136.433 58.1447L136.342 57.1489ZM131.42 58.3486L131.861 59.246L131.867 59.2431L131.42 58.3486ZM128.528 61.3018L127.634 60.8545L127.629 60.8655L128.528 61.3018ZM128.528 91.1714L127.626 91.6024L127.631 91.6132L128.528 91.1714ZM131.42 94.2476L130.944 95.1271L130.95 95.1303L131.42 94.2476ZM143.755 100.984V99.9844C139.179 99.9844 135.462 99.6684 132.583 99.0529L132.374 100.031L132.164 101.009C135.232 101.665 139.103 101.984 143.755 101.984V100.984ZM132.374 100.031L132.576 99.0515C129.741 98.4649 127.608 97.3884 126.098 95.8783L125.391 96.5854L124.684 97.2926C126.537 99.1458 129.059 100.366 132.171 101.01L132.374 100.031ZM125.391 96.5854L126.102 95.8827C124.616 94.3779 123.513 92.154 122.862 89.1161L121.884 89.3257L120.906 89.5352C121.609 92.8138 122.843 95.4297 124.679 97.2882L125.391 96.5854ZM121.884 89.3257L122.863 89.1222C122.226 86.0576 121.899 82.0213 121.899 76.9902H120.899H119.899C119.899 82.0901 120.229 86.2774 120.905 89.5291L121.884 89.3257ZM120.899 76.9902H121.899V75.7598H120.899H119.899V76.9902H120.899ZM120.899 75.7598H121.899C121.899 71.6044 122.103 68.149 122.504 65.3827L121.515 65.2393L120.525 65.0958C120.106 67.9896 119.899 71.548 119.899 75.7598H120.899ZM121.515 65.2393L122.504 65.3817C122.904 62.6075 123.584 60.4201 124.509 58.7778L123.637 58.2871L122.766 57.7964C121.681 59.7225 120.946 62.1698 120.525 65.0968L121.515 65.2393ZM123.637 58.2871L124.509 58.7778C125.426 57.1492 126.657 55.9226 128.209 55.0729L127.729 54.1958L127.248 53.3187C125.355 54.3557 123.858 55.8567 122.766 57.7964L123.637 58.2871ZM127.729 54.1958L128.204 55.0753C129.809 54.2072 131.864 53.5984 134.405 53.2809L134.281 52.2886L134.157 51.2963C131.447 51.635 129.135 52.2977 127.253 53.3163L127.729 54.1958ZM134.281 52.2886L134.412 53.2799C136.981 52.9388 140.092 52.7656 143.755 52.7656V51.7656V50.7656C140.036 50.7656 136.831 50.9411 134.149 51.2973L134.281 52.2886ZM143.755 51.7656V52.7656H156.152V51.7656V50.7656H143.755V51.7656ZM156.152 51.7656V52.7656C159.815 52.7656 162.927 52.9388 165.495 53.2799L165.627 52.2886L165.759 51.2973C163.077 50.9411 159.872 50.7656 156.152 50.7656V51.7656ZM165.627 52.2886L165.503 53.2809C168.044 53.5984 170.087 54.207 171.668 55.0729L172.148 54.1958L172.629 53.3187C170.765 52.2979 168.46 51.6349 165.751 51.2963L165.627 52.2886ZM172.148 54.1958L171.672 55.0753C173.244 55.9258 174.484 57.1522 175.399 58.7778L176.271 58.2871L177.142 57.7964C176.048 55.8537 174.539 54.3525 172.624 53.3163L172.148 54.1958ZM176.271 58.2871L175.399 58.7778C176.324 60.4201 177.004 62.6075 177.403 65.3817L178.393 65.2393L179.383 65.0968C178.962 62.1698 178.227 59.7225 177.142 57.7964L176.271 58.2871ZM178.393 65.2393L177.403 65.3827C177.804 68.149 178.008 71.6044 178.008 75.7598H179.008H180.008C180.008 71.548 179.802 67.9896 179.383 65.0958L178.393 65.2393ZM179.008 75.7598H178.008V76.9902H179.008H180.008V75.7598H179.008ZM179.008 76.9902H178.008C178.008 82.0201 177.672 86.0541 177.015 89.1161L177.993 89.3257L178.971 89.5352C179.668 86.2808 180.008 82.0912 180.008 76.9902H179.008ZM177.993 89.3257L177.014 89.1222C176.384 92.1558 175.282 94.3755 173.779 95.8783L174.486 96.5854L175.193 97.2926C177.054 95.4321 178.29 92.812 178.972 89.5291L177.993 89.3257ZM174.486 96.5854L173.775 95.8827C172.287 97.389 170.167 98.4649 167.332 99.0515L167.534 100.031L167.737 101.01C170.849 100.366 173.363 99.1452 175.198 97.2882L174.486 96.5854ZM167.534 100.031L167.325 99.0529C164.446 99.6684 160.728 99.9844 156.152 99.9844V100.984V101.984C160.805 101.984 164.675 101.665 167.743 101.009L167.534 100.031ZM156.152 100.984V99.9844H143.755V100.984V101.984H156.152V100.984ZM143.755 95.8779V96.8779H156.152V95.8779V94.8779H143.755V95.8779ZM156.152 95.8779V96.8779C159.105 96.8779 161.613 96.7748 163.667 96.5651L163.566 95.5703L163.464 94.5755C161.5 94.776 159.065 94.8779 156.152 94.8779V95.8779ZM163.566 95.5703L163.667 96.5651C165.757 96.3519 167.528 95.8871 168.933 95.1271L168.457 94.2476L167.981 93.368C166.884 93.9616 165.394 94.3786 163.464 94.5755L163.566 95.5703ZM168.457 94.2476L168.927 95.1303C170.398 94.3471 171.508 93.1576 172.251 91.6024L171.349 91.1714L170.446 90.7404C169.877 91.9332 169.059 92.7945 167.987 93.3648L168.457 94.2476ZM171.349 91.1714L172.246 91.6132C172.994 90.0948 173.474 88.1318 173.727 85.7716L172.733 85.665L171.739 85.5585C171.499 87.792 171.057 89.4999 170.452 90.7295L171.349 91.1714ZM172.733 85.665L173.727 85.7716C173.978 83.4264 174.102 80.4962 174.102 76.9902H173.102H172.102C172.102 80.4569 171.98 83.31 171.739 85.5585L172.733 85.665ZM173.102 76.9902H174.102V75.7598H173.102H172.102V76.9902H173.102ZM173.102 75.7598H174.102C174.102 72.1318 173.979 69.12 173.727 66.7342L172.733 66.8389L171.738 66.9436C171.979 69.2335 172.102 72.169 172.102 75.7598H173.102ZM172.733 66.8389L173.727 66.7342C173.475 64.3357 172.995 62.3578 172.243 60.8545L171.349 61.3018L170.454 61.749C171.056 62.9528 171.499 64.6663 171.738 66.9436L172.733 66.8389ZM171.349 61.3018L172.248 60.8655C171.501 59.3236 170.38 58.1683 168.893 57.4485L168.457 58.3486L168.021 59.2488C169.077 59.7594 169.884 60.5729 170.449 61.738L171.349 61.3018ZM168.457 58.3486L168.91 57.4571C167.504 56.7427 165.735 56.3226 163.647 56.1522L163.566 57.1489L163.485 58.1456C165.417 58.3033 166.908 58.683 168.004 59.2401L168.457 58.3486ZM163.566 57.1489L163.657 56.1531C161.607 55.9648 159.103 55.8721 156.152 55.8721V56.8721V57.8721C159.067 57.8721 161.505 57.9639 163.474 58.1447L163.566 57.1489ZM156.152 56.8721V55.8721H143.755V56.8721V57.8721H156.152V56.8721ZM143.755 56.8721V55.8721C140.805 55.8721 138.301 55.9648 136.25 56.1531L136.342 57.1489L136.433 58.1447C138.402 57.9639 140.841 57.8721 143.755 57.8721V56.8721ZM136.342 57.1489L136.26 56.1522C134.173 56.3227 132.396 56.7428 130.973 57.4542L131.42 58.3486L131.867 59.2431C132.987 58.683 134.492 58.3033 136.423 58.1456L136.342 57.1489ZM131.42 58.3486L130.979 57.4513C129.514 58.1714 128.4 59.3232 127.634 60.8545L128.528 61.3018L129.423 61.749C130.011 60.5733 130.824 59.7563 131.861 59.246L131.42 58.3486ZM128.528 61.3018L127.629 60.8655C126.902 62.3649 126.432 64.3385 126.18 66.7342L127.175 66.8389L128.169 66.9436C128.409 64.6635 128.843 62.9457 129.428 61.738L128.528 61.3018ZM127.175 66.8389L126.18 66.7342C125.929 69.12 125.806 72.1318 125.806 75.7598H126.806H127.806C127.806 72.169 127.928 69.2335 128.169 66.9436L127.175 66.8389ZM126.806 75.7598H125.806V76.9902H126.806H127.806V75.7598H126.806ZM126.806 76.9902H125.806C125.806 80.4962 125.929 83.4264 126.18 85.7716L127.175 85.665L128.169 85.5585C127.928 83.31 127.806 80.4569 127.806 76.9902H126.806ZM127.175 85.665L126.18 85.7716C126.433 88.1289 126.903 90.0877 127.626 91.6024L128.528 91.1714L129.431 90.7404C128.842 89.507 128.409 87.7949 128.169 85.5585L127.175 85.665ZM128.528 91.1714L127.631 91.6132C128.392 93.1582 129.496 94.3439 130.944 95.1271L131.42 94.2476L131.896 93.368C130.841 92.7977 130.018 91.9326 129.425 90.7295L128.528 91.1714ZM131.42 94.2476L130.95 95.1303C132.372 95.8871 134.15 96.3518 136.24 96.5651L136.342 95.5703L136.443 94.5755C134.514 94.3786 133.011 93.9615 131.89 93.3648L131.42 94.2476ZM136.342 95.5703L136.24 96.5651C138.295 96.7748 140.803 96.8779 143.755 96.8779V95.8779V94.8779C140.843 94.8779 138.408 94.776 136.443 94.5755L136.342 95.5703ZM189.006 100H188.006V101H189.006V100ZM189.006 52.75V51.75H188.006V52.75H189.006ZM197.804 52.75L198.607 52.1544L198.307 51.75H197.804V52.75ZM226.381 91.2944L225.578 91.89L226.387 92.9817L227.189 91.8842L226.381 91.2944ZM254.528 52.75V51.75H254.02L253.721 52.1603L254.528 52.75ZM263.326 52.75H264.326V51.75H263.326V52.75ZM263.326 100V101H264.326V100H263.326ZM257.42 100H256.42V101H257.42V100ZM257.42 58.1025H258.42V55.0271L256.611 57.5144L257.42 58.1025ZM229.211 96.8931V97.8931H229.721L230.02 97.4812L229.211 96.8931ZM223.859 96.8931L223.057 97.4911L223.357 97.8931H223.859V96.8931ZM194.912 58.1025L195.714 57.5045L193.912 55.0904V58.1025H194.912ZM194.912 100V101H195.912V100H194.912ZM189.006 100H190.006V52.75H189.006H188.006V100H189.006ZM189.006 52.75V53.75H197.804V52.75V51.75H189.006V52.75ZM197.804 52.75L197 53.3456L225.578 91.89L226.381 91.2944L227.185 90.6989L198.607 52.1544L197.804 52.75ZM226.381 91.2944L227.189 91.8842L255.336 53.3397L254.528 52.75L253.721 52.1603L225.574 90.7047L226.381 91.2944ZM254.528 52.75V53.75H263.326V52.75V51.75H254.528V52.75ZM263.326 52.75H262.326V100H263.326H264.326V52.75H263.326ZM263.326 100V99H257.42V100V101H263.326V100ZM257.42 100H258.42V58.1025H257.42H256.42V100H257.42ZM257.42 58.1025L256.611 57.5144L228.403 96.3049L229.211 96.8931L230.02 97.4812L258.229 58.6907L257.42 58.1025ZM229.211 96.8931V95.8931H223.859V96.8931V97.8931H229.211V96.8931ZM223.859 96.8931L224.66 96.295L195.714 57.5045L194.912 58.1025L194.111 58.7006L223.057 97.4911L223.859 96.8931ZM194.912 58.1025H193.912V100H194.912H195.912V58.1025H194.912ZM194.912 100V99H189.006V100V101H194.912V100ZM275.262 100H274.262V101H275.262V100ZM275.262 52.75V51.75H274.262V52.75H275.262ZM281.168 52.75H282.168V51.75H281.168V52.75ZM281.168 100V101H282.168V100H281.168ZM275.262 100H276.262V52.75H275.262H274.262V100H275.262ZM275.262 52.75V53.75H281.168V52.75V51.75H275.262V52.75ZM281.168 52.75H280.168V100H281.168H282.168V52.75H281.168ZM281.168 100V99H275.262V100V101H281.168V100ZM292.98 100H291.98V101H292.98V100ZM292.98 52.75V51.75H291.98V52.75H292.98ZM299.133 52.75L299.777 51.985L299.498 51.75H299.133V52.75ZM346.598 92.7095L345.954 93.4745L346.233 93.7095H346.598V92.7095ZM346.66 92.7095V93.7095H347.66V92.7095H346.66ZM346.66 52.75V51.75H345.66V52.75H346.66ZM352.566 52.75H353.566V51.75H352.566V52.75ZM352.566 100V101H353.566V100H352.566ZM346.414 100L345.766 100.762L346.046 101H346.414V100ZM298.948 59.7021L299.595 58.9398L299.315 58.7021H298.948V59.7021ZM298.887 59.7021V58.7021H297.887V59.7021H298.887ZM298.887 100V101H299.887V100H298.887ZM292.98 100H293.98V52.75H292.98H291.98V100H292.98ZM292.98 52.75V53.75H299.133V52.75V51.75H292.98V52.75ZM299.133 52.75L298.489 53.515L345.954 93.4745L346.598 92.7095L347.242 91.9445L299.777 51.985L299.133 52.75ZM346.598 92.7095V93.7095H346.66V92.7095V91.7095H346.598V92.7095ZM346.66 92.7095H347.66V52.75H346.66H345.66V92.7095H346.66ZM346.66 52.75V53.75H352.566V52.75V51.75H346.66V52.75ZM352.566 52.75H351.566V100H352.566H353.566V52.75H352.566ZM352.566 100V99H346.414V100V101H352.566V100ZM346.414 100L347.061 99.2377L299.595 58.9398L298.948 59.7021L298.301 60.4645L345.766 100.762L346.414 100ZM298.948 59.7021V58.7021H298.887V59.7021V60.7021H298.948V59.7021ZM298.887 59.7021H297.887V100H298.887H299.887V59.7021H298.887ZM298.887 100V99H292.98V100V101H298.887V100ZM373.915 100.031L374.124 99.0528L374.117 99.0515L373.915 100.031ZM366.932 96.5854L366.22 97.2882L366.225 97.2926L366.932 96.5854ZM363.425 89.3257L362.446 89.5291L362.447 89.5352L363.425 89.3257ZM363.056 65.2393L364.045 65.3827L364.045 65.3817L363.056 65.2393ZM369.27 54.1958L368.794 53.3163L368.789 53.3187L369.27 54.1958ZM375.822 52.2886L375.946 53.2809L375.953 53.2799L375.822 52.2886ZM407.168 52.2886L407.036 53.2799L407.044 53.2809L407.168 52.2886ZM413.689 54.1958L413.209 55.0729L413.214 55.0753L413.689 54.1958ZM419.934 65.2393L418.944 65.3817L418.944 65.3827L419.934 65.2393ZM419.534 89.3257L418.556 89.1161L418.555 89.1222L419.534 89.3257ZM416.027 96.5854L415.32 95.8783L415.316 95.8827L416.027 96.5854ZM409.075 100.031L408.873 99.0515L408.866 99.0529L409.075 100.031ZM409.998 94.2476L409.528 93.3648L409.522 93.368L409.998 94.2476ZM412.89 91.1714L411.992 90.7295L411.987 90.7404L412.89 91.1714ZM412.89 61.3018L411.99 61.7381L411.995 61.749L412.89 61.3018ZM409.998 58.3486L409.545 59.2401L409.554 59.2445L409.562 59.2488L409.998 58.3486ZM405.107 57.1489L405.015 58.1448L405.026 58.1456L405.107 57.1489ZM377.883 57.1489L377.964 58.1457L377.974 58.1447L377.883 57.1489ZM372.961 58.3486L373.402 59.246L373.408 59.2431L372.961 58.3486ZM370.069 61.3018L369.175 60.8545L369.17 60.8655L370.069 61.3018ZM370.069 91.1714L369.167 91.6024L369.172 91.6132L370.069 91.1714ZM372.961 94.2476L372.485 95.1271L372.491 95.1303L372.961 94.2476ZM385.296 100.984V99.9844C380.72 99.9844 377.003 99.6684 374.124 99.0529L373.915 100.031L373.705 101.009C376.773 101.665 380.644 101.984 385.296 101.984V100.984ZM373.915 100.031L374.117 99.0515C371.282 98.4649 369.149 97.3884 367.639 95.8783L366.932 96.5854L366.225 97.2926C368.078 99.1458 370.6 100.366 373.712 101.01L373.915 100.031ZM366.932 96.5854L367.643 95.8827C366.157 94.3779 365.054 92.154 364.403 89.1161L363.425 89.3257L362.447 89.5352C363.15 92.8138 364.384 95.4297 366.22 97.2882L366.932 96.5854ZM363.425 89.3257L364.404 89.1222C363.767 86.0576 363.44 82.0213 363.44 76.9902H362.44H361.44C361.44 82.0901 361.77 86.2774 362.446 89.5291L363.425 89.3257ZM362.44 76.9902H363.44V75.7598H362.44H361.44V76.9902H362.44ZM362.44 75.7598H363.44C363.44 71.6044 363.644 68.149 364.045 65.3827L363.056 65.2393L362.066 65.0958C361.647 67.9896 361.44 71.548 361.44 75.7598H362.44ZM363.056 65.2393L364.045 65.3817C364.445 62.6075 365.125 60.4201 366.05 58.7778L365.178 58.2871L364.307 57.7964C363.222 59.7225 362.487 62.1698 362.066 65.0968L363.056 65.2393ZM365.178 58.2871L366.05 58.7778C366.967 57.1492 368.198 55.9226 369.75 55.0729L369.27 54.1958L368.789 53.3187C366.896 54.3557 365.399 55.8567 364.307 57.7964L365.178 58.2871ZM369.27 54.1958L369.745 55.0753C371.35 54.2072 373.405 53.5984 375.946 53.2809L375.822 52.2886L375.698 51.2963C372.988 51.635 370.676 52.2977 368.794 53.3163L369.27 54.1958ZM375.822 52.2886L375.953 53.2799C378.522 52.9388 381.633 52.7656 385.296 52.7656V51.7656V50.7656C381.577 50.7656 378.372 50.9411 375.69 51.2973L375.822 52.2886ZM385.296 51.7656V52.7656H397.693V51.7656V50.7656H385.296V51.7656ZM397.693 51.7656V52.7656C401.356 52.7656 404.468 52.9388 407.036 53.2799L407.168 52.2886L407.3 51.2973C404.618 50.9411 401.413 50.7656 397.693 50.7656V51.7656ZM407.168 52.2886L407.044 53.2809C409.585 53.5984 411.628 54.207 413.209 55.0729L413.689 54.1958L414.17 53.3187C412.306 52.2979 410.001 51.6349 407.292 51.2963L407.168 52.2886ZM413.689 54.1958L413.214 55.0753C414.785 55.9258 416.025 57.1522 416.94 58.7778L417.812 58.2871L418.683 57.7964C417.589 55.8537 416.08 54.3525 414.165 53.3163L413.689 54.1958ZM417.812 58.2871L416.94 58.7778C417.865 60.4201 418.545 62.6075 418.944 65.3817L419.934 65.2393L420.924 65.0968C420.503 62.1698 419.768 59.7225 418.683 57.7964L417.812 58.2871ZM419.934 65.2393L418.944 65.3827C419.345 68.149 419.549 71.6044 419.549 75.7598H420.549H421.549C421.549 71.548 421.343 67.9896 420.924 65.0958L419.934 65.2393ZM420.549 75.7598H419.549V76.9902H420.549H421.549V75.7598H420.549ZM420.549 76.9902H419.549C419.549 82.0201 419.213 86.0541 418.556 89.1161L419.534 89.3257L420.512 89.5352C421.209 86.2808 421.549 82.0912 421.549 76.9902H420.549ZM419.534 89.3257L418.555 89.1222C417.925 92.1558 416.823 94.3755 415.32 95.8783L416.027 96.5854L416.734 97.2926C418.595 95.4321 419.831 92.812 420.513 89.5291L419.534 89.3257ZM416.027 96.5854L415.316 95.8827C413.828 97.389 411.708 98.4649 408.873 99.0515L409.075 100.031L409.278 101.01C412.39 100.366 414.904 99.1452 416.739 97.2882L416.027 96.5854ZM409.075 100.031L408.866 99.0529C405.987 99.6684 402.269 99.9844 397.693 99.9844V100.984V101.984C402.346 101.984 406.216 101.665 409.284 101.009L409.075 100.031ZM397.693 100.984V99.9844H385.296V100.984V101.984H397.693V100.984ZM385.296 95.8779V96.8779H397.693V95.8779V94.8779H385.296V95.8779ZM397.693 95.8779V96.8779C400.646 96.8779 403.154 96.7748 405.208 96.5651L405.107 95.5703L405.005 94.5755C403.041 94.776 400.606 94.8779 397.693 94.8779V95.8779ZM405.107 95.5703L405.208 96.5651C407.298 96.3519 409.069 95.8871 410.474 95.1271L409.998 94.2476L409.522 93.368C408.425 93.9616 406.935 94.3786 405.005 94.5755L405.107 95.5703ZM409.998 94.2476L410.468 95.1303C411.939 94.3471 413.049 93.1576 413.792 91.6024L412.89 91.1714L411.987 90.7404C411.418 91.9332 410.6 92.7945 409.528 93.3648L409.998 94.2476ZM412.89 91.1714L413.787 91.6132C414.535 90.0948 415.015 88.1318 415.268 85.7716L414.274 85.665L413.28 85.5585C413.04 87.792 412.598 89.4999 411.993 90.7295L412.89 91.1714ZM414.274 85.665L415.268 85.7716C415.52 83.4264 415.643 80.4962 415.643 76.9902H414.643H413.643C413.643 80.4569 413.521 83.31 413.28 85.5585L414.274 85.665ZM414.643 76.9902H415.643V75.7598H414.643H413.643V76.9902H414.643ZM414.643 75.7598H415.643C415.643 72.1318 415.52 69.12 415.268 66.7342L414.274 66.8389L413.279 66.9436C413.52 69.2335 413.643 72.169 413.643 75.7598H414.643ZM414.274 66.8389L415.268 66.7342C415.016 64.3357 414.536 62.3578 413.784 60.8545L412.89 61.3018L411.995 61.749C412.597 62.9528 413.04 64.6663 413.279 66.9436L414.274 66.8389ZM412.89 61.3018L413.789 60.8655C413.042 59.3236 411.921 58.1683 410.434 57.4485L409.998 58.3486L409.562 59.2488C410.618 59.7594 411.425 60.5729 411.99 61.738L412.89 61.3018ZM409.998 58.3486L410.451 57.4571C409.045 56.7427 407.276 56.3226 405.188 56.1522L405.107 57.1489L405.026 58.1456C406.958 58.3033 408.449 58.683 409.545 59.2401L409.998 58.3486ZM405.107 57.1489L405.198 56.1531C403.148 55.9648 400.644 55.8721 397.693 55.8721V56.8721V57.8721C400.608 57.8721 403.046 57.9639 405.015 58.1447L405.107 57.1489ZM397.693 56.8721V55.8721H385.296V56.8721V57.8721H397.693V56.8721ZM385.296 56.8721V55.8721C382.346 55.8721 379.842 55.9648 377.791 56.1531L377.883 57.1489L377.974 58.1447C379.943 57.9639 382.382 57.8721 385.296 57.8721V56.8721ZM377.883 57.1489L377.801 56.1522C375.714 56.3227 373.937 56.7428 372.514 57.4542L372.961 58.3486L373.408 59.2431C374.528 58.683 376.033 58.3033 377.964 58.1456L377.883 57.1489ZM372.961 58.3486L372.52 57.4513C371.055 58.1714 369.941 59.3232 369.175 60.8545L370.069 61.3018L370.964 61.749C371.552 60.5733 372.365 59.7563 373.402 59.246L372.961 58.3486ZM370.069 61.3018L369.17 60.8655C368.443 62.3649 367.973 64.3385 367.721 66.7342L368.716 66.8389L369.71 66.9436C369.95 64.6635 370.384 62.9457 370.969 61.738L370.069 61.3018ZM368.716 66.8389L367.721 66.7342C367.47 69.12 367.347 72.1318 367.347 75.7598H368.347H369.347C369.347 72.169 369.469 69.2335 369.71 66.9436L368.716 66.8389ZM368.347 75.7598H367.347V76.9902H368.347H369.347V75.7598H368.347ZM368.347 76.9902H367.347C367.347 80.4962 367.47 83.4264 367.721 85.7716L368.716 85.665L369.71 85.5585C369.469 83.31 369.347 80.4569 369.347 76.9902H368.347ZM368.716 85.665L367.721 85.7716C367.974 88.1289 368.444 90.0877 369.167 91.6024L370.069 91.1714L370.972 90.7404C370.383 89.507 369.95 87.7949 369.71 85.5585L368.716 85.665ZM370.069 91.1714L369.172 91.6132C369.933 93.1582 371.037 94.3439 372.485 95.1271L372.961 94.2476L373.437 93.368C372.382 92.7977 371.559 91.9326 370.966 90.7295L370.069 91.1714ZM372.961 94.2476L372.491 95.1303C373.913 95.8871 375.691 96.3518 377.781 96.5651L377.883 95.5703L377.984 94.5755C376.055 94.3786 374.552 93.9615 373.431 93.3648L372.961 94.2476ZM377.883 95.5703L377.781 96.5651C379.836 96.7748 382.344 96.8779 385.296 96.8779V95.8779V94.8779C382.384 94.8779 379.949 94.776 377.984 94.5755L377.883 95.5703ZM430.547 52.75V51.75H429.547V52.75H430.547ZM473.306 53.3652L473.161 54.3547L473.162 54.3549L473.306 53.3652ZM482.565 73.8218L481.616 73.5055L481.614 73.5122L482.565 73.8218ZM479.212 78.1284L479.759 78.9652L479.767 78.9605L479.212 78.1284ZM471.829 80.4355L471.692 79.445L470.282 79.6401L470.944 80.9005L471.829 80.4355ZM482.104 100V101H483.758L482.989 99.535L482.104 100ZM476.197 100L475.312 100.465L475.593 101H476.197V100ZM466.138 80.8662L467.023 80.4009L466.726 79.8356L466.088 79.8675L466.138 80.8662ZM436.453 80.897V79.897H435.453V80.897H436.453ZM436.453 100V101H437.453V100H436.453ZM430.547 100H429.547V101H430.547V100ZM436.453 75.7905H435.453V76.7905H436.453V75.7905ZM470.845 75.4521L470.956 76.446L470.965 76.4449L470.845 75.4521ZM475.305 74.1909L474.78 73.3398L474.772 73.345L475.305 74.1909ZM469.83 58.1025L469.755 59.0998L469.764 59.1004L469.83 58.1025ZM436.453 57.8564V56.8564H435.453V57.8564H436.453ZM430.547 52.75V53.75H462.17V52.75V51.75H430.547V52.75ZM462.17 52.75V53.75C466.762 53.75 470.42 53.9545 473.161 54.3547L473.306 53.3652L473.45 52.3757C470.573 51.9556 466.807 51.75 462.17 51.75V52.75ZM473.306 53.3652L473.162 54.3549C475.923 54.7551 477.892 55.4313 479.167 56.3108L479.735 55.4878L480.303 54.6648C478.665 53.5346 476.348 52.7957 473.449 52.3756L473.306 53.3652ZM479.735 55.4878L479.167 56.3108C480.429 57.1818 481.279 58.3622 481.729 59.892L482.688 59.6099L483.647 59.3277C483.072 57.3712 481.953 55.8036 480.303 54.6648L479.735 55.4878ZM482.688 59.6099L481.729 59.892C482.205 61.5117 482.457 63.6129 482.457 66.2236H483.457H484.457C484.457 63.5023 484.196 61.1944 483.647 59.3277L482.688 59.6099ZM483.457 66.2236H482.457V67.4541H483.457H484.457V66.2236H483.457ZM483.457 67.4541H482.457C482.457 69.8388 482.168 71.8493 481.616 73.5056L482.565 73.8218L483.514 74.138C484.151 72.2259 484.457 69.9913 484.457 67.4541H483.457ZM482.565 73.8218L481.614 73.5122C481.115 75.0453 480.147 76.3035 478.657 77.2964L479.212 78.1284L479.767 78.9605C481.6 77.7385 482.867 76.1256 483.516 74.1314L482.565 73.8218ZM479.212 78.1284L478.664 77.2916C477.183 78.2612 474.891 79.0024 471.692 79.445L471.829 80.4355L471.966 81.4261C475.289 80.9664 477.919 80.1695 479.759 78.9652L479.212 78.1284ZM471.829 80.4355L470.944 80.9005L481.218 100.465L482.104 100L482.989 99.535L472.714 79.9706L471.829 80.4355ZM482.104 100V99H476.197V100V101H482.104V100ZM476.197 100L477.082 99.5347L467.023 80.4009L466.138 80.8662L465.253 81.3315L475.312 100.465L476.197 100ZM466.138 80.8662L466.088 79.8675C465.696 79.8871 465.282 79.897 464.846 79.897V80.897V81.897C465.312 81.897 465.76 81.8864 466.188 81.865L466.138 80.8662ZM464.846 80.897V79.897C464.845 79.897 464.845 79.897 464.844 79.897C464.843 79.897 464.842 79.897 464.841 79.897C464.84 79.897 464.839 79.897 464.839 79.897C464.838 79.897 464.837 79.897 464.836 79.897C464.835 79.897 464.834 79.897 464.834 79.897C464.833 79.897 464.832 79.897 464.831 79.897C464.83 79.897 464.829 79.897 464.829 79.897C464.828 79.897 464.827 79.897 464.826 79.897C464.825 79.897 464.824 79.897 464.823 79.897C464.823 79.897 464.822 79.897 464.821 79.897C464.82 79.897 464.819 79.897 464.818 79.897C464.818 79.897 464.817 79.897 464.816 79.897C464.815 79.897 464.814 79.897 464.813 79.897C464.812 79.897 464.812 79.897 464.811 79.897C464.81 79.897 464.809 79.897 464.808 79.897C464.807 79.897 464.807 79.897 464.806 79.897C464.805 79.897 464.804 79.897 464.803 79.897C464.802 79.897 464.802 79.897 464.801 79.897C464.8 79.897 464.799 79.897 464.798 79.897C464.797 79.897 464.796 79.897 464.796 79.897C464.795 79.897 464.794 79.897 464.793 79.897C464.792 79.897 464.791 79.897 464.791 79.897C464.79 79.897 464.789 79.897 464.788 79.897C464.787 79.897 464.786 79.897 464.785 79.897C464.785 79.897 464.784 79.897 464.783 79.897C464.782 79.897 464.781 79.897 464.78 79.897C464.78 79.897 464.779 79.897 464.778 79.897C464.777 79.897 464.776 79.897 464.775 79.897C464.775 79.897 464.774 79.897 464.773 79.897C464.772 79.897 464.771 79.897 464.77 79.897C464.769 79.897 464.769 79.897 464.768 79.897C464.767 79.897 464.766 79.897 464.765 79.897C464.764 79.897 464.764 79.897 464.763 79.897C464.762 79.897 464.761 79.897 464.76 79.897C464.759 79.897 464.758 79.897 464.758 79.897C464.757 79.897 464.756 79.897 464.755 79.897C464.754 79.897 464.753 79.897 464.753 79.897C464.752 79.897 464.751 79.897 464.75 79.897C464.749 79.897 464.748 79.897 464.747 79.897C464.747 79.897 464.746 79.897 464.745 79.897C464.744 79.897 464.743 79.897 464.742 79.897C464.741 79.897 464.741 79.897 464.74 79.897C464.739 79.897 464.738 79.897 464.737 79.897C464.736 79.897 464.736 79.897 464.735 79.897C464.734 79.897 464.733 79.897 464.732 79.897C464.731 79.897 464.73 79.897 464.73 79.897C464.729 79.897 464.728 79.897 464.727 79.897C464.726 79.897 464.725 79.897 464.725 79.897C464.724 79.897 464.723 79.897 464.722 79.897C464.721 79.897 464.72 79.897 464.719 79.897C464.719 79.897 464.718 79.897 464.717 79.897C464.716 79.897 464.715 79.897 464.714 79.897C464.714 79.897 464.713 79.897 464.712 79.897C464.711 79.897 464.71 79.897 464.709 79.897C464.708 79.897 464.708 79.897 464.707 79.897C464.706 79.897 464.705 79.897 464.704 79.897C464.703 79.897 464.702 79.897 464.702 79.897C464.701 79.897 464.7 79.897 464.699 79.897C464.698 79.897 464.697 79.897 464.697 79.897C464.696 79.897 464.695 79.897 464.694 79.897C464.693 79.897 464.692 79.897 464.691 79.897C464.691 79.897 464.69 79.897 464.689 79.897C464.688 79.897 464.687 79.897 464.686 79.897C464.685 79.897 464.685 79.897 464.684 79.897C464.683 79.897 464.682 79.897 464.681 79.897C464.68 79.897 464.679 79.897 464.679 79.897C464.678 79.897 464.677 79.897 464.676 79.897C464.675 79.897 464.674 79.897 464.674 79.897C464.673 79.897 464.672 79.897 464.671 79.897C464.67 79.897 464.669 79.897 464.668 79.897C464.668 79.897 464.667 79.897 464.666 79.897C464.665 79.897 464.664 79.897 464.663 79.897C464.662 79.897 464.662 79.897 464.661 79.897C464.66 79.897 464.659 79.897 464.658 79.897C464.657 79.897 464.656 79.897 464.656 79.897C464.655 79.897 464.654 79.897 464.653 79.897C464.652 79.897 464.651 79.897 464.65 79.897C464.65 79.897 464.649 79.897 464.648 79.897C464.647 79.897 464.646 79.897 464.645 79.897C464.645 79.897 464.644 79.897 464.643 79.897C464.642 79.897 464.641 79.897 464.64 79.897C464.639 79.897 464.639 79.897 464.638 79.897C464.637 79.897 464.636 79.897 464.635 79.897C464.634 79.897 464.633 79.897 464.633 79.897C464.632 79.897 464.631 79.897 464.63 79.897C464.629 79.897 464.628 79.897 464.627 79.897C464.627 79.897 464.626 79.897 464.625 79.897C464.624 79.897 464.623 79.897 464.622 79.897C464.621 79.897 464.621 79.897 464.62 79.897C464.619 79.897 464.618 79.897 464.617 79.897C464.616 79.897 464.615 79.897 464.615 79.897C464.614 79.897 464.613 79.897 464.612 79.897C464.611 79.897 464.61 79.897 464.609 79.897C464.609 79.897 464.608 79.897 464.607 79.897C464.606 79.897 464.605 79.897 464.604 79.897C464.603 79.897 464.603 79.897 464.602 79.897C464.601 79.897 464.6 79.897 464.599 79.897C464.598 79.897 464.598 79.897 464.597 79.897C464.596 79.897 464.595 79.897 464.594 79.897C464.593 79.897 464.592 79.897 464.591 79.897C464.591 79.897 464.59 79.897 464.589 79.897C464.588 79.897 464.587 79.897 464.586 79.897C464.586 79.897 464.585 79.897 464.584 79.897C464.583 79.897 464.582 79.897 464.581 79.897C464.58 79.897 464.579 79.897 464.579 79.897C464.578 79.897 464.577 79.897 464.576 79.897C464.575 79.897 464.574 79.897 464.573 79.897C464.573 79.897 464.572 79.897 464.571 79.897C464.57 79.897 464.569 79.897 464.568 79.897C464.568 79.897 464.567 79.897 464.566 79.897C464.565 79.897 464.564 79.897 464.563 79.897C464.562 79.897 464.561 79.897 464.561 79.897C464.56 79.897 464.559 79.897 464.558 79.897C464.557 79.897 464.556 79.897 464.555 79.897C464.555 79.897 464.554 79.897 464.553 79.897C464.552 79.897 464.551 79.897 464.55 79.897C464.549 79.897 464.549 79.897 464.548 79.897C464.547 79.897 464.546 79.897 464.545 79.897C464.544 79.897 464.543 79.897 464.543 79.897C464.542 79.897 464.541 79.897 464.54 79.897C464.539 79.897 464.538 79.897 464.537 79.897C464.537 79.897 464.536 79.897 464.535 79.897C464.534 79.897 464.533 79.897 464.532 79.897C464.531 79.897 464.531 79.897 464.53 79.897C464.529 79.897 464.528 79.897 464.527 79.897C464.526 79.897 464.525 79.897 464.525 79.897C464.524 79.897 464.523 79.897 464.522 79.897C464.521 79.897 464.52 79.897 464.519 79.897C464.518 79.897 464.518 79.897 464.517 79.897C464.516 79.897 464.515 79.897 464.514 79.897C464.513 79.897 464.512 79.897 464.512 79.897C464.511 79.897 464.51 79.897 464.509 79.897C464.508 79.897 464.507 79.897 464.506 79.897C464.506 79.897 464.505 79.897 464.504 79.897C464.503 79.897 464.502 79.897 464.501 79.897C464.5 79.897 464.5 79.897 464.499 79.897C464.498 79.897 464.497 79.897 464.496 79.897C464.495 79.897 464.494 79.897 464.493 79.897C464.493 79.897 464.492 79.897 464.491 79.897C464.49 79.897 464.489 79.897 464.488 79.897C464.487 79.897 464.487 79.897 464.486 79.897C464.485 79.897 464.484 79.897 464.483 79.897C464.482 79.897 464.481 79.897 464.481 79.897C464.48 79.897 464.479 79.897 464.478 79.897C464.477 79.897 464.476 79.897 464.475 79.897C464.474 79.897 464.474 79.897 464.473 79.897C464.472 79.897 464.471 79.897 464.47 79.897C464.469 79.897 464.468 79.897 464.468 79.897C464.467 79.897 464.466 79.897 464.465 79.897C464.464 79.897 464.463 79.897 464.462 79.897C464.462 79.897 464.461 79.897 464.46 79.897C464.459 79.897 464.458 79.897 464.457 79.897C464.456 79.897 464.455 79.897 464.455 79.897C464.454 79.897 464.453 79.897 464.452 79.897C464.451 79.897 464.45 79.897 464.449 79.897C464.449 79.897 464.448 79.897 464.447 79.897C464.446 79.897 464.445 79.897 464.444 79.897C464.443 79.897 464.443 79.897 464.442 79.897C464.441 79.897 464.44 79.897 464.439 79.897C464.438 79.897 464.437 79.897 464.436 79.897C464.436 79.897 464.435 79.897 464.434 79.897C464.433 79.897 464.432 79.897 464.431 79.897C464.43 79.897 464.43 79.897 464.429 79.897C464.428 79.897 464.427 79.897 464.426 79.897C464.425 79.897 464.424 79.897 464.423 79.897C464.423 79.897 464.422 79.897 464.421 79.897C464.42 79.897 464.419 79.897 464.418 79.897C464.417 79.897 464.417 79.897 464.416 79.897C464.415 79.897 464.414 79.897 464.413 79.897C464.412 79.897 464.411 79.897 464.41 79.897C464.41 79.897 464.409 79.897 464.408 79.897C464.407 79.897 464.406 79.897 464.405 79.897C464.404 79.897 464.403 79.897 464.403 79.897C464.402 79.897 464.401 79.897 464.4 79.897C464.399 79.897 464.398 79.897 464.397 79.897C464.397 79.897 464.396 79.897 464.395 79.897C464.394 79.897 464.393 79.897 464.392 79.897C464.391 79.897 464.39 79.897 464.39 79.897C464.389 79.897 464.388 79.897 464.387 79.897C464.386 79.897 464.385 79.897 464.384 79.897C464.384 79.897 464.383 79.897 464.382 79.897C464.381 79.897 464.38 79.897 464.379 79.897C464.378 79.897 464.377 79.897 464.377 79.897C464.376 79.897 464.375 79.897 464.374 79.897C464.373 79.897 464.372 79.897 464.371 79.897C464.37 79.897 464.37 79.897 464.369 79.897C464.368 79.897 464.367 79.897 464.366 79.897C464.365 79.897 464.364 79.897 464.363 79.897C464.363 79.897 464.362 79.897 464.361 79.897C464.36 79.897 464.359 79.897 464.358 79.897C464.357 79.897 464.357 79.897 464.356 79.897C464.355 79.897 464.354 79.897 464.353 79.897C464.352 79.897 464.351 79.897 464.35 79.897C464.35 79.897 464.349 79.897 464.348 79.897C464.347 79.897 464.346 79.897 464.345 79.897C464.344 79.897 464.343 79.897 464.343 79.897C464.342 79.897 464.341 79.897 464.34 79.897C464.339 79.897 464.338 79.897 464.337 79.897C464.336 79.897 464.336 79.897 464.335 79.897C464.334 79.897 464.333 79.897 464.332 79.897C464.331 79.897 464.33 79.897 464.329 79.897C464.329 79.897 464.328 79.897 464.327 79.897C464.326 79.897 464.325 79.897 464.324 79.897C464.323 79.897 464.323 79.897 464.322 79.897C464.321 79.897 464.32 79.897 464.319 79.897C464.318 79.897 464.317 79.897 464.316 79.897C464.316 79.897 464.315 79.897 464.314 79.897C464.313 79.897 464.312 79.897 464.311 79.897C464.31 79.897 464.309 79.897 464.309 79.897C464.308 79.897 464.307 79.897 464.306 79.897C464.305 79.897 464.304 79.897 464.303 79.897C464.302 79.897 464.302 79.897 464.301 79.897C464.3 79.897 464.299 79.897 464.298 79.897C464.297 79.897 464.296 79.897 464.295 79.897C464.295 79.897 464.294 79.897 464.293 79.897C464.292 79.897 464.291 79.897 464.29 79.897C464.289 79.897 464.288 79.897 464.288 79.897C464.287 79.897 464.286 79.897 464.285 79.897C464.284 79.897 464.283 79.897 464.282 79.897C464.281 79.897 464.281 79.897 464.28 79.897C464.279 79.897 464.278 79.897 464.277 79.897C464.276 79.897 464.275 79.897 464.274 79.897C464.274 79.897 464.273 79.897 464.272 79.897C464.271 79.897 464.27 79.897 464.269 79.897C464.268 79.897 464.267 79.897 464.267 79.897C464.266 79.897 464.265 79.897 464.264 79.897C464.263 79.897 464.262 79.897 464.261 79.897C464.26 79.897 464.26 79.897 464.259 79.897C464.258 79.897 464.257 79.897 464.256 79.897C464.255 79.897 464.254 79.897 464.253 79.897C464.253 79.897 464.252 79.897 464.251 79.897C464.25 79.897 464.249 79.897 464.248 79.897C464.247 79.897 464.246 79.897 464.245 79.897C464.245 79.897 464.244 79.897 464.243 79.897C464.242 79.897 464.241 79.897 464.24 79.897C464.239 79.897 464.238 79.897 464.238 79.897C464.237 79.897 464.236 79.897 464.235 79.897C464.234 79.897 464.233 79.897 464.232 79.897C464.231 79.897 464.231 79.897 464.23 79.897C464.229 79.897 464.228 79.897 464.227 79.897C464.226 79.897 464.225 79.897 464.224 79.897C464.224 79.897 464.223 79.897 464.222 79.897C464.221 79.897 464.22 79.897 464.219 79.897C464.218 79.897 464.217 79.897 464.216 79.897C464.216 79.897 464.215 79.897 464.214 79.897C464.213 79.897 464.212 79.897 464.211 79.897C464.21 79.897 464.209 79.897 464.209 79.897C464.208 79.897 464.207 79.897 464.206 79.897C464.205 79.897 464.204 79.897 464.203 79.897C464.202 79.897 464.202 79.897 464.201 79.897C464.2 79.897 464.199 79.897 464.198 79.897C464.197 79.897 464.196 79.897 464.195 79.897C464.195 79.897 464.194 79.897 464.193 79.897C464.192 79.897 464.191 79.897 464.19 79.897C464.189 79.897 464.188 79.897 464.187 79.897C464.187 79.897 464.186 79.897 464.185 79.897C464.184 79.897 464.183 79.897 464.182 79.897C464.181 79.897 464.18 79.897 464.18 79.897C464.179 79.897 464.178 79.897 464.177 79.897C464.176 79.897 464.175 79.897 464.174 79.897C464.173 79.897 464.172 79.897 464.172 79.897C464.171 79.897 464.17 79.897 464.169 79.897C464.168 79.897 464.167 79.897 464.166 79.897C464.165 79.897 464.165 79.897 464.164 79.897C464.163 79.897 464.162 79.897 464.161 79.897C464.16 79.897 464.159 79.897 464.158 79.897C464.157 79.897 464.157 79.897 464.156 79.897C464.155 79.897 464.154 79.897 464.153 79.897C464.152 79.897 464.151 79.897 464.15 79.897C464.15 79.897 464.149 79.897 464.148 79.897C464.147 79.897 464.146 79.897 464.145 79.897C464.144 79.897 464.143 79.897 464.142 79.897C464.142 79.897 464.141 79.897 464.14 79.897C464.139 79.897 464.138 79.897 464.137 79.897C464.136 79.897 464.135 79.897 464.134 79.897C464.134 79.897 464.133 79.897 464.132 79.897C464.131 79.897 464.13 79.897 464.129 79.897C464.128 79.897 464.127 79.897 464.127 79.897C464.126 79.897 464.125 79.897 464.124 79.897C464.123 79.897 464.122 79.897 464.121 79.897C464.12 79.897 464.119 79.897 464.119 79.897C464.118 79.897 464.117 79.897 464.116 79.897C464.115 79.897 464.114 79.897 464.113 79.897C464.112 79.897 464.111 79.897 464.111 79.897C464.11 79.897 464.109 79.897 464.108 79.897C464.107 79.897 464.106 79.897 464.105 79.897C464.104 79.897 464.104 79.897 464.103 79.897C464.102 79.897 464.101 79.897 464.1 79.897C464.099 79.897 464.098 79.897 464.097 79.897C464.096 79.897 464.096 79.897 464.095 79.897C464.094 79.897 464.093 79.897 464.092 79.897C464.091 79.897 464.09 79.897 464.089 79.897C464.088 79.897 464.088 79.897 464.087 79.897C464.086 79.897 464.085 79.897 464.084 79.897C464.083 79.897 464.082 79.897 464.081 79.897C464.08 79.897 464.08 79.897 464.079 79.897C464.078 79.897 464.077 79.897 464.076 79.897C464.075 79.897 464.074 79.897 464.073 79.897C464.072 79.897 464.072 79.897 464.071 79.897C464.07 79.897 464.069 79.897 464.068 79.897C464.067 79.897 464.066 79.897 464.065 79.897C464.064 79.897 464.064 79.897 464.063 79.897C464.062 79.897 464.061 79.897 464.06 79.897C464.059 79.897 464.058 79.897 464.057 79.897C464.056 79.897 464.056 79.897 464.055 79.897C464.054 79.897 464.053 79.897 464.052 79.897C464.051 79.897 464.05 79.897 464.049 79.897C464.048 79.897 464.048 79.897 464.047 79.897C464.046 79.897 464.045 79.897 464.044 79.897C464.043 79.897 464.042 79.897 464.041 79.897C464.04 79.897 464.04 79.897 464.039 79.897C464.038 79.897 464.037 79.897 464.036 79.897C464.035 79.897 464.034 79.897 464.033 79.897C464.032 79.897 464.032 79.897 464.031 79.897C464.03 79.897 464.029 79.897 464.028 79.897C464.027 79.897 464.026 79.897 464.025 79.897C464.024 79.897 464.024 79.897 464.023 79.897C464.022 79.897 464.021 79.897 464.02 79.897C464.019 79.897 464.018 79.897 464.017 79.897C464.016 79.897 464.016 79.897 464.015 79.897C464.014 79.897 464.013 79.897 464.012 79.897C464.011 79.897 464.01 79.897 464.009 79.897C464.008 79.897 464.008 79.897 464.007 79.897C464.006 79.897 464.005 79.897 464.004 79.897C464.003 79.897 464.002 79.897 464.001 79.897C464 79.897 464 79.897 463.999 79.897C463.998 79.897 463.997 79.897 463.996 79.897C463.995 79.897 463.994 79.897 463.993 79.897C463.992 79.897 463.991 79.897 463.991 79.897C463.99 79.897 463.989 79.897 463.988 79.897C463.987 79.897 463.986 79.897 463.985 79.897C463.984 79.897 463.983 79.897 463.983 79.897C463.982 79.897 463.981 79.897 463.98 79.897C463.979 79.897 463.978 79.897 463.977 79.897C463.976 79.897 463.975 79.897 463.975 79.897C463.974 79.897 463.973 79.897 463.972 79.897C463.971 79.897 463.97 79.897 463.969 79.897C463.968 79.897 463.967 79.897 463.966 79.897C463.966 79.897 463.965 79.897 463.964 79.897C463.963 79.897 463.962 79.897 463.961 79.897C463.96 79.897 463.959 79.897 463.958 79.897C463.958 79.897 463.957 79.897 463.956 79.897C463.955 79.897 463.954 79.897 463.953 79.897C463.952 79.897 463.951 79.897 463.95 79.897C463.949 79.897 463.949 79.897 463.948 79.897C463.947 79.897 463.946 79.897 463.945 79.897C463.944 79.897 463.943 79.897 463.942 79.897C463.941 79.897 463.941 79.897 463.94 79.897C463.939 79.897 463.938 79.897 463.937 79.897C463.936 79.897 463.935 79.897 463.934 79.897C463.933 79.897 463.932 79.897 463.932 79.897C463.931 79.897 463.93 79.897 463.929 79.897C463.928 79.897 463.927 79.897 463.926 79.897C463.925 79.897 463.924 79.897 463.923 79.897C463.923 79.897 463.922 79.897 463.921 79.897C463.92 79.897 463.919 79.897 463.918 79.897C463.917 79.897 463.916 79.897 463.915 79.897C463.915 79.897 463.914 79.897 463.913 79.897C463.912 79.897 463.911 79.897 463.91 79.897C463.909 79.897 463.908 79.897 463.907 79.897C463.906 79.897 463.906 79.897 463.905 79.897C463.904 79.897 463.903 79.897 463.902 79.897C463.901 79.897 463.9 79.897 463.899 79.897C463.898 79.897 463.897 79.897 463.897 79.897C463.896 79.897 463.895 79.897 463.894 79.897C463.893 79.897 463.892 79.897 463.891 79.897C463.89 79.897 463.889 79.897 463.888 79.897C463.888 79.897 463.887 79.897 463.886 79.897C463.885 79.897 463.884 79.897 463.883 79.897C463.882 79.897 463.881 79.897 463.88 79.897C463.879 79.897 463.879 79.897 463.878 79.897C463.877 79.897 463.876 79.897 463.875 79.897C463.874 79.897 463.873 79.897 463.872 79.897C463.871 79.897 463.871 79.897 463.87 79.897C463.869 79.897 463.868 79.897 463.867 79.897C463.866 79.897 463.865 79.897 463.864 79.897C463.863 79.897 463.862 79.897 463.862 79.897C463.861 79.897 463.86 79.897 463.859 79.897C463.858 79.897 463.857 79.897 463.856 79.897C463.855 79.897 463.854 79.897 463.853 79.897C463.853 79.897 463.852 79.897 463.851 79.897C463.85 79.897 463.849 79.897 463.848 79.897C463.847 79.897 463.846 79.897 463.845 79.897C463.844 79.897 463.844 79.897 463.843 79.897C463.842 79.897 463.841 79.897 463.84 79.897C463.839 79.897 463.838 79.897 463.837 79.897C463.836 79.897 463.835 79.897 463.834 79.897C463.834 79.897 463.833 79.897 463.832 79.897C463.831 79.897 463.83 79.897 463.829 79.897C463.828 79.897 463.827 79.897 463.826 79.897C463.825 79.897 463.825 79.897 463.824 79.897C463.823 79.897 463.822 79.897 463.821 79.897C463.82 79.897 463.819 79.897 463.818 79.897C463.817 79.897 463.816 79.897 463.816 79.897C463.815 79.897 463.814 79.897 463.813 79.897C463.812 79.897 463.811 79.897 463.81 79.897C463.809 79.897 463.808 79.897 463.807 79.897C463.806 79.897 463.806 79.897 463.805 79.897C463.804 79.897 463.803 79.897 463.802 79.897C463.801 79.897 463.8 79.897 463.799 79.897C463.798 79.897 463.797 79.897 463.797 79.897C463.796 79.897 463.795 79.897 463.794 79.897C463.793 79.897 463.792 79.897 463.791 79.897C463.79 79.897 463.789 79.897 463.788 79.897C463.788 79.897 463.787 79.897 463.786 79.897C463.785 79.897 463.784 79.897 463.783 79.897C463.782 79.897 463.781 79.897 463.78 79.897C463.779 79.897 463.778 79.897 463.778 79.897C463.777 79.897 463.776 79.897 463.775 79.897C463.774 79.897 463.773 79.897 463.772 79.897C463.771 79.897 463.77 79.897 463.769 79.897C463.769 79.897 463.768 79.897 463.767 79.897C463.766 79.897 463.765 79.897 463.764 79.897C463.763 79.897 463.762 79.897 463.761 79.897C463.76 79.897 463.759 79.897 463.759 79.897C463.758 79.897 463.757 79.897 463.756 79.897C463.755 79.897 463.754 79.897 463.753 79.897C463.752 79.897 463.751 79.897 463.75 79.897C463.749 79.897 463.749 79.897 463.748 79.897C463.747 79.897 463.746 79.897 463.745 79.897C463.744 79.897 463.743 79.897 463.742 79.897C463.741 79.897 463.74 79.897 463.74 79.897C463.739 79.897 463.738 79.897 463.737 79.897C463.736 79.897 463.735 79.897 463.734 79.897C463.733 79.897 463.732 79.897 463.731 79.897C463.73 79.897 463.73 79.897 463.729 79.897C463.728 79.897 463.727 79.897 463.726 79.897C463.725 79.897 463.724 79.897 463.723 79.897C463.722 79.897 463.721 79.897 463.72 79.897C463.72 79.897 463.719 79.897 463.718 79.897C463.717 79.897 463.716 79.897 463.715 79.897C463.714 79.897 463.713 79.897 463.712 79.897C463.711 79.897 463.71 79.897 463.71 79.897C463.709 79.897 463.708 79.897 463.707 79.897C463.706 79.897 463.705 79.897 463.704 79.897C463.703 79.897 463.702 79.897 463.701 79.897C463.7 79.897 463.7 79.897 463.699 79.897C463.698 79.897 463.697 79.897 463.696 79.897C463.695 79.897 463.694 79.897 463.693 79.897C463.692 79.897 463.691 79.897 463.69 79.897C463.69 79.897 463.689 79.897 463.688 79.897C463.687 79.897 463.686 79.897 463.685 79.897C463.684 79.897 463.683 79.897 463.682 79.897C463.681 79.897 463.68 79.897 463.68 79.897C463.679 79.897 463.678 79.897 463.677 79.897C463.676 79.897 463.675 79.897 463.674 79.897C463.673 79.897 463.672 79.897 463.671 79.897C463.67 79.897 463.669 79.897 463.669 79.897C463.668 79.897 463.667 79.897 463.666 79.897C463.665 79.897 463.664 79.897 463.663 79.897C463.662 79.897 463.661 79.897 463.66 79.897C463.659 79.897 463.659 79.897 463.658 79.897C463.657 79.897 463.656 79.897 463.655 79.897C463.654 79.897 463.653 79.897 463.652 79.897C463.651 79.897 463.65 79.897 463.649 79.897C463.649 79.897 463.648 79.897 463.647 79.897C463.646 79.897 463.645 79.897 463.644 79.897C463.643 79.897 463.642 79.897 463.641 79.897C463.64 79.897 463.639 79.897 463.638 79.897C463.638 79.897 463.637 79.897 463.636 79.897C463.635 79.897 463.634 79.897 463.633 79.897C463.632 79.897 463.631 79.897 463.63 79.897C463.629 79.897 463.628 79.897 463.628 79.897C463.627 79.897 463.626 79.897 463.625 79.897C463.624 79.897 463.623 79.897 463.622 79.897C463.621 79.897 463.62 79.897 463.619 79.897C463.618 79.897 463.617 79.897 463.617 79.897C463.616 79.897 463.615 79.897 463.614 79.897C463.613 79.897 463.612 79.897 463.611 79.897C463.61 79.897 463.609 79.897 463.608 79.897C463.607 79.897 463.607 79.897 463.606 79.897C463.605 79.897 463.604 79.897 463.603 79.897C463.602 79.897 463.601 79.897 463.6 79.897C463.599 79.897 463.598 79.897 463.597 79.897C463.596 79.897 463.596 79.897 463.595 79.897C463.594 79.897 463.593 79.897 463.592 79.897C463.591 79.897 463.59 79.897 463.589 79.897C463.588 79.897 463.587 79.897 463.586 79.897C463.585 79.897 463.585 79.897 463.584 79.897C463.583 79.897 463.582 79.897 463.581 79.897C463.58 79.897 463.579 79.897 463.578 79.897C463.577 79.897 463.576 79.897 463.575 79.897C463.574 79.897 463.574 79.897 463.573 79.897C463.572 79.897 463.571 79.897 463.57 79.897C463.569 79.897 463.568 79.897 463.567 79.897C463.566 79.897 463.565 79.897 463.564 79.897C463.563 79.897 463.563 79.897 463.562 79.897C463.561 79.897 463.56 79.897 463.559 79.897C463.558 79.897 463.557 79.897 463.556 79.897C463.555 79.897 463.554 79.897 463.553 79.897C463.552 79.897 463.552 79.897 463.551 79.897C463.55 79.897 463.549 79.897 463.548 79.897C463.547 79.897 463.546 79.897 463.545 79.897C463.544 79.897 463.543 79.897 463.542 79.897C463.541 79.897 463.54 79.897 463.54 79.897C463.539 79.897 463.538 79.897 463.537 79.897C463.536 79.897 463.535 79.897 463.534 79.897C463.533 79.897 463.532 79.897 463.531 79.897C463.53 79.897 463.529 79.897 463.529 79.897C463.528 79.897 463.527 79.897 463.526 79.897C463.525 79.897 463.524 79.897 463.523 79.897C463.522 79.897 463.521 79.897 463.52 79.897C463.519 79.897 463.518 79.897 463.518 79.897C463.517 79.897 463.516 79.897 463.515 79.897C463.514 79.897 463.513 79.897 463.512 79.897C463.511 79.897 463.51 79.897 463.509 79.897C463.508 79.897 463.507 79.897 463.507 79.897C463.506 79.897 463.505 79.897 463.504 79.897C463.503 79.897 463.502 79.897 463.501 79.897C463.5 79.897 463.499 79.897 463.498 79.897C463.497 79.897 463.496 79.897 463.495 79.897C463.495 79.897 463.494 79.897 463.493 79.897V80.897V81.897C463.494 81.897 463.495 81.897 463.495 81.897C463.496 81.897 463.497 81.897 463.498 81.897C463.499 81.897 463.5 81.897 463.501 81.897C463.502 81.897 463.503 81.897 463.504 81.897C463.505 81.897 463.506 81.897 463.507 81.897C463.507 81.897 463.508 81.897 463.509 81.897C463.51 81.897 463.511 81.897 463.512 81.897C463.513 81.897 463.514 81.897 463.515 81.897C463.516 81.897 463.517 81.897 463.518 81.897C463.518 81.897 463.519 81.897 463.52 81.897C463.521 81.897 463.522 81.897 463.523 81.897C463.524 81.897 463.525 81.897 463.526 81.897C463.527 81.897 463.528 81.897 463.529 81.897C463.529 81.897 463.53 81.897 463.531 81.897C463.532 81.897 463.533 81.897 463.534 81.897C463.535 81.897 463.536 81.897 463.537 81.897C463.538 81.897 463.539 81.897 463.54 81.897C463.54 81.897 463.541 81.897 463.542 81.897C463.543 81.897 463.544 81.897 463.545 81.897C463.546 81.897 463.547 81.897 463.548 81.897C463.549 81.897 463.55 81.897 463.551 81.897C463.552 81.897 463.552 81.897 463.553 81.897C463.554 81.897 463.555 81.897 463.556 81.897C463.557 81.897 463.558 81.897 463.559 81.897C463.56 81.897 463.561 81.897 463.562 81.897C463.563 81.897 463.563 81.897 463.564 81.897C463.565 81.897 463.566 81.897 463.567 81.897C463.568 81.897 463.569 81.897 463.57 81.897C463.571 81.897 463.572 81.897 463.573 81.897C463.574 81.897 463.574 81.897 463.575 81.897C463.576 81.897 463.577 81.897 463.578 81.897C463.579 81.897 463.58 81.897 463.581 81.897C463.582 81.897 463.583 81.897 463.584 81.897C463.585 81.897 463.585 81.897 463.586 81.897C463.587 81.897 463.588 81.897 463.589 81.897C463.59 81.897 463.591 81.897 463.592 81.897C463.593 81.897 463.594 81.897 463.595 81.897C463.596 81.897 463.596 81.897 463.597 81.897C463.598 81.897 463.599 81.897 463.6 81.897C463.601 81.897 463.602 81.897 463.603 81.897C463.604 81.897 463.605 81.897 463.606 81.897C463.607 81.897 463.607 81.897 463.608 81.897C463.609 81.897 463.61 81.897 463.611 81.897C463.612 81.897 463.613 81.897 463.614 81.897C463.615 81.897 463.616 81.897 463.617 81.897C463.617 81.897 463.618 81.897 463.619 81.897C463.62 81.897 463.621 81.897 463.622 81.897C463.623 81.897 463.624 81.897 463.625 81.897C463.626 81.897 463.627 81.897 463.628 81.897C463.628 81.897 463.629 81.897 463.63 81.897C463.631 81.897 463.632 81.897 463.633 81.897C463.634 81.897 463.635 81.897 463.636 81.897C463.637 81.897 463.638 81.897 463.638 81.897C463.639 81.897 463.64 81.897 463.641 81.897C463.642 81.897 463.643 81.897 463.644 81.897C463.645 81.897 463.646 81.897 463.647 81.897C463.648 81.897 463.649 81.897 463.649 81.897C463.65 81.897 463.651 81.897 463.652 81.897C463.653 81.897 463.654 81.897 463.655 81.897C463.656 81.897 463.657 81.897 463.658 81.897C463.659 81.897 463.659 81.897 463.66 81.897C463.661 81.897 463.662 81.897 463.663 81.897C463.664 81.897 463.665 81.897 463.666 81.897C463.667 81.897 463.668 81.897 463.669 81.897C463.669 81.897 463.67 81.897 463.671 81.897C463.672 81.897 463.673 81.897 463.674 81.897C463.675 81.897 463.676 81.897 463.677 81.897C463.678 81.897 463.679 81.897 463.68 81.897C463.68 81.897 463.681 81.897 463.682 81.897C463.683 81.897 463.684 81.897 463.685 81.897C463.686 81.897 463.687 81.897 463.688 81.897C463.689 81.897 463.69 81.897 463.69 81.897C463.691 81.897 463.692 81.897 463.693 81.897C463.694 81.897 463.695 81.897 463.696 81.897C463.697 81.897 463.698 81.897 463.699 81.897C463.7 81.897 463.7 81.897 463.701 81.897C463.702 81.897 463.703 81.897 463.704 81.897C463.705 81.897 463.706 81.897 463.707 81.897C463.708 81.897 463.709 81.897 463.71 81.897C463.71 81.897 463.711 81.897 463.712 81.897C463.713 81.897 463.714 81.897 463.715 81.897C463.716 81.897 463.717 81.897 463.718 81.897C463.719 81.897 463.72 81.897 463.72 81.897C463.721 81.897 463.722 81.897 463.723 81.897C463.724 81.897 463.725 81.897 463.726 81.897C463.727 81.897 463.728 81.897 463.729 81.897C463.73 81.897 463.73 81.897 463.731 81.897C463.732 81.897 463.733 81.897 463.734 81.897C463.735 81.897 463.736 81.897 463.737 81.897C463.738 81.897 463.739 81.897 463.74 81.897C463.74 81.897 463.741 81.897 463.742 81.897C463.743 81.897 463.744 81.897 463.745 81.897C463.746 81.897 463.747 81.897 463.748 81.897C463.749 81.897 463.749 81.897 463.75 81.897C463.751 81.897 463.752 81.897 463.753 81.897C463.754 81.897 463.755 81.897 463.756 81.897C463.757 81.897 463.758 81.897 463.759 81.897C463.759 81.897 463.76 81.897 463.761 81.897C463.762 81.897 463.763 81.897 463.764 81.897C463.765 81.897 463.766 81.897 463.767 81.897C463.768 81.897 463.769 81.897 463.769 81.897C463.77 81.897 463.771 81.897 463.772 81.897C463.773 81.897 463.774 81.897 463.775 81.897C463.776 81.897 463.777 81.897 463.778 81.897C463.778 81.897 463.779 81.897 463.78 81.897C463.781 81.897 463.782 81.897 463.783 81.897C463.784 81.897 463.785 81.897 463.786 81.897C463.787 81.897 463.788 81.897 463.788 81.897C463.789 81.897 463.79 81.897 463.791 81.897C463.792 81.897 463.793 81.897 463.794 81.897C463.795 81.897 463.796 81.897 463.797 81.897C463.797 81.897 463.798 81.897 463.799 81.897C463.8 81.897 463.801 81.897 463.802 81.897C463.803 81.897 463.804 81.897 463.805 81.897C463.806 81.897 463.806 81.897 463.807 81.897C463.808 81.897 463.809 81.897 463.81 81.897C463.811 81.897 463.812 81.897 463.813 81.897C463.814 81.897 463.815 81.897 463.816 81.897C463.816 81.897 463.817 81.897 463.818 81.897C463.819 81.897 463.82 81.897 463.821 81.897C463.822 81.897 463.823 81.897 463.824 81.897C463.825 81.897 463.825 81.897 463.826 81.897C463.827 81.897 463.828 81.897 463.829 81.897C463.83 81.897 463.831 81.897 463.832 81.897C463.833 81.897 463.834 81.897 463.834 81.897C463.835 81.897 463.836 81.897 463.837 81.897C463.838 81.897 463.839 81.897 463.84 81.897C463.841 81.897 463.842 81.897 463.843 81.897C463.844 81.897 463.844 81.897 463.845 81.897C463.846 81.897 463.847 81.897 463.848 81.897C463.849 81.897 463.85 81.897 463.851 81.897C463.852 81.897 463.853 81.897 463.853 81.897C463.854 81.897 463.855 81.897 463.856 81.897C463.857 81.897 463.858 81.897 463.859 81.897C463.86 81.897 463.861 81.897 463.862 81.897C463.862 81.897 463.863 81.897 463.864 81.897C463.865 81.897 463.866 81.897 463.867 81.897C463.868 81.897 463.869 81.897 463.87 81.897C463.871 81.897 463.871 81.897 463.872 81.897C463.873 81.897 463.874 81.897 463.875 81.897C463.876 81.897 463.877 81.897 463.878 81.897C463.879 81.897 463.879 81.897 463.88 81.897C463.881 81.897 463.882 81.897 463.883 81.897C463.884 81.897 463.885 81.897 463.886 81.897C463.887 81.897 463.888 81.897 463.888 81.897C463.889 81.897 463.89 81.897 463.891 81.897C463.892 81.897 463.893 81.897 463.894 81.897C463.895 81.897 463.896 81.897 463.897 81.897C463.897 81.897 463.898 81.897 463.899 81.897C463.9 81.897 463.901 81.897 463.902 81.897C463.903 81.897 463.904 81.897 463.905 81.897C463.906 81.897 463.906 81.897 463.907 81.897C463.908 81.897 463.909 81.897 463.91 81.897C463.911 81.897 463.912 81.897 463.913 81.897C463.914 81.897 463.915 81.897 463.915 81.897C463.916 81.897 463.917 81.897 463.918 81.897C463.919 81.897 463.92 81.897 463.921 81.897C463.922 81.897 463.923 81.897 463.923 81.897C463.924 81.897 463.925 81.897 463.926 81.897C463.927 81.897 463.928 81.897 463.929 81.897C463.93 81.897 463.931 81.897 463.932 81.897C463.932 81.897 463.933 81.897 463.934 81.897C463.935 81.897 463.936 81.897 463.937 81.897C463.938 81.897 463.939 81.897 463.94 81.897C463.941 81.897 463.941 81.897 463.942 81.897C463.943 81.897 463.944 81.897 463.945 81.897C463.946 81.897 463.947 81.897 463.948 81.897C463.949 81.897 463.949 81.897 463.95 81.897C463.951 81.897 463.952 81.897 463.953 81.897C463.954 81.897 463.955 81.897 463.956 81.897C463.957 81.897 463.958 81.897 463.958 81.897C463.959 81.897 463.96 81.897 463.961 81.897C463.962 81.897 463.963 81.897 463.964 81.897C463.965 81.897 463.966 81.897 463.966 81.897C463.967 81.897 463.968 81.897 463.969 81.897C463.97 81.897 463.971 81.897 463.972 81.897C463.973 81.897 463.974 81.897 463.975 81.897C463.975 81.897 463.976 81.897 463.977 81.897C463.978 81.897 463.979 81.897 463.98 81.897C463.981 81.897 463.982 81.897 463.983 81.897C463.983 81.897 463.984 81.897 463.985 81.897C463.986 81.897 463.987 81.897 463.988 81.897C463.989 81.897 463.99 81.897 463.991 81.897C463.991 81.897 463.992 81.897 463.993 81.897C463.994 81.897 463.995 81.897 463.996 81.897C463.997 81.897 463.998 81.897 463.999 81.897C464 81.897 464 81.897 464.001 81.897C464.002 81.897 464.003 81.897 464.004 81.897C464.005 81.897 464.006 81.897 464.007 81.897C464.008 81.897 464.008 81.897 464.009 81.897C464.01 81.897 464.011 81.897 464.012 81.897C464.013 81.897 464.014 81.897 464.015 81.897C464.016 81.897 464.016 81.897 464.017 81.897C464.018 81.897 464.019 81.897 464.02 81.897C464.021 81.897 464.022 81.897 464.023 81.897C464.024 81.897 464.024 81.897 464.025 81.897C464.026 81.897 464.027 81.897 464.028 81.897C464.029 81.897 464.03 81.897 464.031 81.897C464.032 81.897 464.032 81.897 464.033 81.897C464.034 81.897 464.035 81.897 464.036 81.897C464.037 81.897 464.038 81.897 464.039 81.897C464.04 81.897 464.04 81.897 464.041 81.897C464.042 81.897 464.043 81.897 464.044 81.897C464.045 81.897 464.046 81.897 464.047 81.897C464.048 81.897 464.048 81.897 464.049 81.897C464.05 81.897 464.051 81.897 464.052 81.897C464.053 81.897 464.054 81.897 464.055 81.897C464.056 81.897 464.056 81.897 464.057 81.897C464.058 81.897 464.059 81.897 464.06 81.897C464.061 81.897 464.062 81.897 464.063 81.897C464.064 81.897 464.064 81.897 464.065 81.897C464.066 81.897 464.067 81.897 464.068 81.897C464.069 81.897 464.07 81.897 464.071 81.897C464.072 81.897 464.072 81.897 464.073 81.897C464.074 81.897 464.075 81.897 464.076 81.897C464.077 81.897 464.078 81.897 464.079 81.897C464.08 81.897 464.08 81.897 464.081 81.897C464.082 81.897 464.083 81.897 464.084 81.897C464.085 81.897 464.086 81.897 464.087 81.897C464.088 81.897 464.088 81.897 464.089 81.897C464.09 81.897 464.091 81.897 464.092 81.897C464.093 81.897 464.094 81.897 464.095 81.897C464.096 81.897 464.096 81.897 464.097 81.897C464.098 81.897 464.099 81.897 464.1 81.897C464.101 81.897 464.102 81.897 464.103 81.897C464.104 81.897 464.104 81.897 464.105 81.897C464.106 81.897 464.107 81.897 464.108 81.897C464.109 81.897 464.11 81.897 464.111 81.897C464.111 81.897 464.112 81.897 464.113 81.897C464.114 81.897 464.115 81.897 464.116 81.897C464.117 81.897 464.118 81.897 464.119 81.897C464.119 81.897 464.12 81.897 464.121 81.897C464.122 81.897 464.123 81.897 464.124 81.897C464.125 81.897 464.126 81.897 464.127 81.897C464.127 81.897 464.128 81.897 464.129 81.897C464.13 81.897 464.131 81.897 464.132 81.897C464.133 81.897 464.134 81.897 464.134 81.897C464.135 81.897 464.136 81.897 464.137 81.897C464.138 81.897 464.139 81.897 464.14 81.897C464.141 81.897 464.142 81.897 464.142 81.897C464.143 81.897 464.144 81.897 464.145 81.897C464.146 81.897 464.147 81.897 464.148 81.897C464.149 81.897 464.15 81.897 464.15 81.897C464.151 81.897 464.152 81.897 464.153 81.897C464.154 81.897 464.155 81.897 464.156 81.897C464.157 81.897 464.157 81.897 464.158 81.897C464.159 81.897 464.16 81.897 464.161 81.897C464.162 81.897 464.163 81.897 464.164 81.897C464.165 81.897 464.165 81.897 464.166 81.897C464.167 81.897 464.168 81.897 464.169 81.897C464.17 81.897 464.171 81.897 464.172 81.897C464.172 81.897 464.173 81.897 464.174 81.897C464.175 81.897 464.176 81.897 464.177 81.897C464.178 81.897 464.179 81.897 464.18 81.897C464.18 81.897 464.181 81.897 464.182 81.897C464.183 81.897 464.184 81.897 464.185 81.897C464.186 81.897 464.187 81.897 464.187 81.897C464.188 81.897 464.189 81.897 464.19 81.897C464.191 81.897 464.192 81.897 464.193 81.897C464.194 81.897 464.195 81.897 464.195 81.897C464.196 81.897 464.197 81.897 464.198 81.897C464.199 81.897 464.2 81.897 464.201 81.897C464.202 81.897 464.202 81.897 464.203 81.897C464.204 81.897 464.205 81.897 464.206 81.897C464.207 81.897 464.208 81.897 464.209 81.897C464.209 81.897 464.21 81.897 464.211 81.897C464.212 81.897 464.213 81.897 464.214 81.897C464.215 81.897 464.216 81.897 464.216 81.897C464.217 81.897 464.218 81.897 464.219 81.897C464.22 81.897 464.221 81.897 464.222 81.897C464.223 81.897 464.224 81.897 464.224 81.897C464.225 81.897 464.226 81.897 464.227 81.897C464.228 81.897 464.229 81.897 464.23 81.897C464.231 81.897 464.231 81.897 464.232 81.897C464.233 81.897 464.234 81.897 464.235 81.897C464.236 81.897 464.237 81.897 464.238 81.897C464.238 81.897 464.239 81.897 464.24 81.897C464.241 81.897 464.242 81.897 464.243 81.897C464.244 81.897 464.245 81.897 464.245 81.897C464.246 81.897 464.247 81.897 464.248 81.897C464.249 81.897 464.25 81.897 464.251 81.897C464.252 81.897 464.253 81.897 464.253 81.897C464.254 81.897 464.255 81.897 464.256 81.897C464.257 81.897 464.258 81.897 464.259 81.897C464.26 81.897 464.26 81.897 464.261 81.897C464.262 81.897 464.263 81.897 464.264 81.897C464.265 81.897 464.266 81.897 464.267 81.897C464.267 81.897 464.268 81.897 464.269 81.897C464.27 81.897 464.271 81.897 464.272 81.897C464.273 81.897 464.274 81.897 464.274 81.897C464.275 81.897 464.276 81.897 464.277 81.897C464.278 81.897 464.279 81.897 464.28 81.897C464.281 81.897 464.281 81.897 464.282 81.897C464.283 81.897 464.284 81.897 464.285 81.897C464.286 81.897 464.287 81.897 464.288 81.897C464.288 81.897 464.289 81.897 464.29 81.897C464.291 81.897 464.292 81.897 464.293 81.897C464.294 81.897 464.295 81.897 464.295 81.897C464.296 81.897 464.297 81.897 464.298 81.897C464.299 81.897 464.3 81.897 464.301 81.897C464.302 81.897 464.302 81.897 464.303 81.897C464.304 81.897 464.305 81.897 464.306 81.897C464.307 81.897 464.308 81.897 464.309 81.897C464.309 81.897 464.31 81.897 464.311 81.897C464.312 81.897 464.313 81.897 464.314 81.897C464.315 81.897 464.316 81.897 464.316 81.897C464.317 81.897 464.318 81.897 464.319 81.897C464.32 81.897 464.321 81.897 464.322 81.897C464.323 81.897 464.323 81.897 464.324 81.897C464.325 81.897 464.326 81.897 464.327 81.897C464.328 81.897 464.329 81.897 464.329 81.897C464.33 81.897 464.331 81.897 464.332 81.897C464.333 81.897 464.334 81.897 464.335 81.897C464.336 81.897 464.336 81.897 464.337 81.897C464.338 81.897 464.339 81.897 464.34 81.897C464.341 81.897 464.342 81.897 464.343 81.897C464.343 81.897 464.344 81.897 464.345 81.897C464.346 81.897 464.347 81.897 464.348 81.897C464.349 81.897 464.35 81.897 464.35 81.897C464.351 81.897 464.352 81.897 464.353 81.897C464.354 81.897 464.355 81.897 464.356 81.897C464.357 81.897 464.357 81.897 464.358 81.897C464.359 81.897 464.36 81.897 464.361 81.897C464.362 81.897 464.363 81.897 464.363 81.897C464.364 81.897 464.365 81.897 464.366 81.897C464.367 81.897 464.368 81.897 464.369 81.897C464.37 81.897 464.37 81.897 464.371 81.897C464.372 81.897 464.373 81.897 464.374 81.897C464.375 81.897 464.376 81.897 464.377 81.897C464.377 81.897 464.378 81.897 464.379 81.897C464.38 81.897 464.381 81.897 464.382 81.897C464.383 81.897 464.384 81.897 464.384 81.897C464.385 81.897 464.386 81.897 464.387 81.897C464.388 81.897 464.389 81.897 464.39 81.897C464.39 81.897 464.391 81.897 464.392 81.897C464.393 81.897 464.394 81.897 464.395 81.897C464.396 81.897 464.397 81.897 464.397 81.897C464.398 81.897 464.399 81.897 464.4 81.897C464.401 81.897 464.402 81.897 464.403 81.897C464.403 81.897 464.404 81.897 464.405 81.897C464.406 81.897 464.407 81.897 464.408 81.897C464.409 81.897 464.41 81.897 464.41 81.897C464.411 81.897 464.412 81.897 464.413 81.897C464.414 81.897 464.415 81.897 464.416 81.897C464.417 81.897 464.417 81.897 464.418 81.897C464.419 81.897 464.42 81.897 464.421 81.897C464.422 81.897 464.423 81.897 464.423 81.897C464.424 81.897 464.425 81.897 464.426 81.897C464.427 81.897 464.428 81.897 464.429 81.897C464.43 81.897 464.43 81.897 464.431 81.897C464.432 81.897 464.433 81.897 464.434 81.897C464.435 81.897 464.436 81.897 464.436 81.897C464.437 81.897 464.438 81.897 464.439 81.897C464.44 81.897 464.441 81.897 464.442 81.897C464.443 81.897 464.443 81.897 464.444 81.897C464.445 81.897 464.446 81.897 464.447 81.897C464.448 81.897 464.449 81.897 464.449 81.897C464.45 81.897 464.451 81.897 464.452 81.897C464.453 81.897 464.454 81.897 464.455 81.897C464.455 81.897 464.456 81.897 464.457 81.897C464.458 81.897 464.459 81.897 464.46 81.897C464.461 81.897 464.462 81.897 464.462 81.897C464.463 81.897 464.464 81.897 464.465 81.897C464.466 81.897 464.467 81.897 464.468 81.897C464.468 81.897 464.469 81.897 464.47 81.897C464.471 81.897 464.472 81.897 464.473 81.897C464.474 81.897 464.474 81.897 464.475 81.897C464.476 81.897 464.477 81.897 464.478 81.897C464.479 81.897 464.48 81.897 464.481 81.897C464.481 81.897 464.482 81.897 464.483 81.897C464.484 81.897 464.485 81.897 464.486 81.897C464.487 81.897 464.487 81.897 464.488 81.897C464.489 81.897 464.49 81.897 464.491 81.897C464.492 81.897 464.493 81.897 464.493 81.897C464.494 81.897 464.495 81.897 464.496 81.897C464.497 81.897 464.498 81.897 464.499 81.897C464.5 81.897 464.5 81.897 464.501 81.897C464.502 81.897 464.503 81.897 464.504 81.897C464.505 81.897 464.506 81.897 464.506 81.897C464.507 81.897 464.508 81.897 464.509 81.897C464.51 81.897 464.511 81.897 464.512 81.897C464.512 81.897 464.513 81.897 464.514 81.897C464.515 81.897 464.516 81.897 464.517 81.897C464.518 81.897 464.518 81.897 464.519 81.897C464.52 81.897 464.521 81.897 464.522 81.897C464.523 81.897 464.524 81.897 464.525 81.897C464.525 81.897 464.526 81.897 464.527 81.897C464.528 81.897 464.529 81.897 464.53 81.897C464.531 81.897 464.531 81.897 464.532 81.897C464.533 81.897 464.534 81.897 464.535 81.897C464.536 81.897 464.537 81.897 464.537 81.897C464.538 81.897 464.539 81.897 464.54 81.897C464.541 81.897 464.542 81.897 464.543 81.897C464.543 81.897 464.544 81.897 464.545 81.897C464.546 81.897 464.547 81.897 464.548 81.897C464.549 81.897 464.549 81.897 464.55 81.897C464.551 81.897 464.552 81.897 464.553 81.897C464.554 81.897 464.555 81.897 464.555 81.897C464.556 81.897 464.557 81.897 464.558 81.897C464.559 81.897 464.56 81.897 464.561 81.897C464.561 81.897 464.562 81.897 464.563 81.897C464.564 81.897 464.565 81.897 464.566 81.897C464.567 81.897 464.568 81.897 464.568 81.897C464.569 81.897 464.57 81.897 464.571 81.897C464.572 81.897 464.573 81.897 464.573 81.897C464.574 81.897 464.575 81.897 464.576 81.897C464.577 81.897 464.578 81.897 464.579 81.897C464.579 81.897 464.58 81.897 464.581 81.897C464.582 81.897 464.583 81.897 464.584 81.897C464.585 81.897 464.586 81.897 464.586 81.897C464.587 81.897 464.588 81.897 464.589 81.897C464.59 81.897 464.591 81.897 464.591 81.897C464.592 81.897 464.593 81.897 464.594 81.897C464.595 81.897 464.596 81.897 464.597 81.897C464.598 81.897 464.598 81.897 464.599 81.897C464.6 81.897 464.601 81.897 464.602 81.897C464.603 81.897 464.603 81.897 464.604 81.897C464.605 81.897 464.606 81.897 464.607 81.897C464.608 81.897 464.609 81.897 464.609 81.897C464.61 81.897 464.611 81.897 464.612 81.897C464.613 81.897 464.614 81.897 464.615 81.897C464.615 81.897 464.616 81.897 464.617 81.897C464.618 81.897 464.619 81.897 464.62 81.897C464.621 81.897 464.621 81.897 464.622 81.897C464.623 81.897 464.624 81.897 464.625 81.897C464.626 81.897 464.627 81.897 464.627 81.897C464.628 81.897 464.629 81.897 464.63 81.897C464.631 81.897 464.632 81.897 464.633 81.897C464.633 81.897 464.634 81.897 464.635 81.897C464.636 81.897 464.637 81.897 464.638 81.897C464.639 81.897 464.639 81.897 464.64 81.897C464.641 81.897 464.642 81.897 464.643 81.897C464.644 81.897 464.645 81.897 464.645 81.897C464.646 81.897 464.647 81.897 464.648 81.897C464.649 81.897 464.65 81.897 464.65 81.897C464.651 81.897 464.652 81.897 464.653 81.897C464.654 81.897 464.655 81.897 464.656 81.897C464.656 81.897 464.657 81.897 464.658 81.897C464.659 81.897 464.66 81.897 464.661 81.897C464.662 81.897 464.662 81.897 464.663 81.897C464.664 81.897 464.665 81.897 464.666 81.897C464.667 81.897 464.668 81.897 464.668 81.897C464.669 81.897 464.67 81.897 464.671 81.897C464.672 81.897 464.673 81.897 464.674 81.897C464.674 81.897 464.675 81.897 464.676 81.897C464.677 81.897 464.678 81.897 464.679 81.897C464.679 81.897 464.68 81.897 464.681 81.897C464.682 81.897 464.683 81.897 464.684 81.897C464.685 81.897 464.685 81.897 464.686 81.897C464.687 81.897 464.688 81.897 464.689 81.897C464.69 81.897 464.691 81.897 464.691 81.897C464.692 81.897 464.693 81.897 464.694 81.897C464.695 81.897 464.696 81.897 464.697 81.897C464.697 81.897 464.698 81.897 464.699 81.897C464.7 81.897 464.701 81.897 464.702 81.897C464.702 81.897 464.703 81.897 464.704 81.897C464.705 81.897 464.706 81.897 464.707 81.897C464.708 81.897 464.708 81.897 464.709 81.897C464.71 81.897 464.711 81.897 464.712 81.897C464.713 81.897 464.714 81.897 464.714 81.897C464.715 81.897 464.716 81.897 464.717 81.897C464.718 81.897 464.719 81.897 464.719 81.897C464.72 81.897 464.721 81.897 464.722 81.897C464.723 81.897 464.724 81.897 464.725 81.897C464.725 81.897 464.726 81.897 464.727 81.897C464.728 81.897 464.729 81.897 464.73 81.897C464.73 81.897 464.731 81.897 464.732 81.897C464.733 81.897 464.734 81.897 464.735 81.897C464.736 81.897 464.736 81.897 464.737 81.897C464.738 81.897 464.739 81.897 464.74 81.897C464.741 81.897 464.741 81.897 464.742 81.897C464.743 81.897 464.744 81.897 464.745 81.897C464.746 81.897 464.747 81.897 464.747 81.897C464.748 81.897 464.749 81.897 464.75 81.897C464.751 81.897 464.752 81.897 464.753 81.897C464.753 81.897 464.754 81.897 464.755 81.897C464.756 81.897 464.757 81.897 464.758 81.897C464.758 81.897 464.759 81.897 464.76 81.897C464.761 81.897 464.762 81.897 464.763 81.897C464.764 81.897 464.764 81.897 464.765 81.897C464.766 81.897 464.767 81.897 464.768 81.897C464.769 81.897 464.769 81.897 464.77 81.897C464.771 81.897 464.772 81.897 464.773 81.897C464.774 81.897 464.775 81.897 464.775 81.897C464.776 81.897 464.777 81.897 464.778 81.897C464.779 81.897 464.78 81.897 464.78 81.897C464.781 81.897 464.782 81.897 464.783 81.897C464.784 81.897 464.785 81.897 464.785 81.897C464.786 81.897 464.787 81.897 464.788 81.897C464.789 81.897 464.79 81.897 464.791 81.897C464.791 81.897 464.792 81.897 464.793 81.897C464.794 81.897 464.795 81.897 464.796 81.897C464.796 81.897 464.797 81.897 464.798 81.897C464.799 81.897 464.8 81.897 464.801 81.897C464.802 81.897 464.802 81.897 464.803 81.897C464.804 81.897 464.805 81.897 464.806 81.897C464.807 81.897 464.807 81.897 464.808 81.897C464.809 81.897 464.81 81.897 464.811 81.897C464.812 81.897 464.812 81.897 464.813 81.897C464.814 81.897 464.815 81.897 464.816 81.897C464.817 81.897 464.818 81.897 464.818 81.897C464.819 81.897 464.82 81.897 464.821 81.897C464.822 81.897 464.823 81.897 464.823 81.897C464.824 81.897 464.825 81.897 464.826 81.897C464.827 81.897 464.828 81.897 464.829 81.897C464.829 81.897 464.83 81.897 464.831 81.897C464.832 81.897 464.833 81.897 464.834 81.897C464.834 81.897 464.835 81.897 464.836 81.897C464.837 81.897 464.838 81.897 464.839 81.897C464.839 81.897 464.84 81.897 464.841 81.897C464.842 81.897 464.843 81.897 464.844 81.897C464.845 81.897 464.845 81.897 464.846 81.897V80.897ZM463.493 80.897V79.897H436.453V80.897V81.897H463.493V80.897ZM436.453 80.897H435.453V100H436.453H437.453V80.897H436.453ZM436.453 100V99H430.547V100V101H436.453V100ZM430.547 100H431.547V52.75H430.547H429.547V100H430.547ZM436.453 75.7905V76.7905H462.57V75.7905V74.7905H436.453V75.7905ZM462.57 75.7905V76.7905C466.091 76.7905 468.892 76.6776 470.956 76.4459L470.845 75.4521L470.733 74.4584C468.778 74.6779 466.062 74.7905 462.57 74.7905V75.7905ZM470.845 75.4521L470.965 76.4449C473.04 76.1934 474.705 75.7514 475.838 75.0368L475.305 74.1909L474.772 73.345C474.019 73.8199 472.71 74.2187 470.724 74.4594L470.845 75.4521ZM475.305 74.1909L475.83 75.0419C477.014 74.3113 477.792 73.2519 478.122 71.9067L477.151 71.6685L476.18 71.4302C475.976 72.2588 475.524 72.8811 474.78 73.3399L475.305 74.1909ZM477.151 71.6685L478.122 71.9067C478.415 70.7119 478.551 69.2189 478.551 67.4541H477.551H476.551C476.551 69.1346 476.42 70.4512 476.18 71.4302L477.151 71.6685ZM477.551 67.4541H478.551V66.2236H477.551H476.551V67.4541H477.551ZM477.551 66.2236H478.551C478.551 64.2283 478.364 62.5703 477.947 61.2983L476.997 61.6094L476.047 61.9204C476.369 62.9043 476.551 64.3224 476.551 66.2236H477.551ZM476.997 61.6094L477.947 61.2983C477.49 59.9014 476.559 58.8633 475.216 58.2167L474.782 59.1177L474.348 60.0187C475.22 60.4385 475.766 61.0615 476.047 61.9204L476.997 61.6094ZM474.782 59.1177L475.216 58.2167C473.936 57.6001 472.132 57.251 469.895 57.1047L469.83 58.1025L469.764 59.1004C471.916 59.2411 473.414 59.5688 474.348 60.0187L474.782 59.1177ZM469.83 58.1025L469.904 57.1053C467.674 56.9386 464.713 56.8564 461.032 56.8564V57.8564V58.8564C464.692 58.8564 467.596 58.9384 469.755 59.0998L469.83 58.1025ZM461.032 57.8564V56.8564H436.453V57.8564V58.8564H461.032V57.8564ZM436.453 57.8564H435.453V75.7905H436.453H437.453V57.8564H436.453ZM494.654 100H493.654V101H494.654V100ZM494.654 52.75V51.75H493.654V52.75H494.654ZM500.561 52.75H501.561V51.75H500.561V52.75ZM500.561 100V101H501.561V100H500.561ZM494.654 100H495.654V52.75H494.654H493.654V100H494.654ZM494.654 52.75V53.75H500.561V52.75V51.75H494.654V52.75ZM500.561 52.75H499.561V100H500.561H501.561V52.75H500.561ZM500.561 100V99H494.654V100V101H500.561V100Z" fill="#D2D2D2" mask="url(#path-1-outside-1_1002_3)"/>
</g>
<defs>
<filter id="filter0_dddddd_1002_3" x="0.241055" y="0.567226" width="551.518" height="151.616" filterUnits="userSpaceOnUse" color-interpolation-filters="sRGB">
<feFlood flood-opacity="0" result="BackgroundImageFix"/>
<feColorMatrix in="SourceAlpha" type="matrix" values="0 0 0 0 0 0 0 0 0 0 0 0 0 0 0 0 0 0 127 0" result="hardAlpha"/>
<feOffset/>
<feGaussianBlur stdDeviation="0.5976"/>
<feColorMatrix type="matrix" values="0 0 0 0 1 0 0 0 0 1 0 0 0 0 1 0 0 0 1 0"/>
<feBlend mode="normal" in2="BackgroundImageFix" result="effect1_dropShadow_1002_3"/>
<feColorMatrix in="SourceAlpha" type="matrix" values="0 0 0 0 0 0 0 0 0 0 0 0 0 0 0 0 0 0 127 0" result="hardAlpha"/>
<feOffset/>
<feGaussianBlur stdDeviation="1.1952"/>
<feColorMatrix type="matrix" values="0 0 0 0 1 0 0 0 0 1 0 0 0 0 1 0 0 0 1 0"/>
<feBlend mode="normal" in2="effect1_dropShadow_1002_3" result="effect2_dropShadow_1002_3"/>
<feColorMatrix in="SourceAlpha" type="matrix" values="0 0 0 0 0 0 0 0 0 0 0 0 0 0 0 0 0 0 127 0" result="hardAlpha"/>
<feOffset/>
<feGaussianBlur stdDeviation="4.1832"/>
<feColorMatrix type="matrix" values="0 0 0 0 1 0 0 0 0 1 0 0 0 0 1 0 0 0 1 0"/>
<feBlend mode="normal" in2="effect2_dropShadow_1002_3" result="effect3_dropShadow_1002_3"/>
<feColorMatrix in="SourceAlpha" type="matrix" values="0 0 0 0 0 0 0 0 0 0 0 0 0 0 0 0 0 0 127 0" result="hardAlpha"/>
<feOffset/>
<feGaussianBlur stdDeviation="8.3664"/>
<feColorMatrix type="matrix" values="0 0 0 0 1 0 0 0 0 1 0 0 0 0 1 0 0 0 1 0"/>
<feBlend mode="normal" in2="effect3_dropShadow_1002_3" result="effect4_dropShadow_1002_3"/>
<feColorMatrix in="SourceAlpha" type="matrix" values="0 0 0 0 0 0 0 0 0 0 0 0 0 0 0 0 0 0 127 0" result="hardAlpha"/>
<feOffset/>
<feGaussianBlur stdDeviation="14.3424"/>
<feColorMatrix type="matrix" values="0 0 0 0 1 0 0 0 0 1 0 0 0 0 1 0 0 0 1 0"/>
<feBlend mode="normal" in2="effect4_dropShadow_1002_3" result="effect5_dropShadow_1002_3"/>
<feColorMatrix in="SourceAlpha" type="matrix" values="0 0 0 0 0 0 0 0 0 0 0 0 0 0 0 0 0 0 127 0" result="hardAlpha"/>
<feOffset/>
<feGaussianBlur stdDeviation="25.0992"/>
<feColorMatrix type="matrix" values="0 0 0 0 1 0 0 0 0 1 0 0 0 0 1 0 0 0 1 0"/>
<feBlend mode="normal" in2="effect5_dropShadow_1002_3" result="effect6_dropShadow_1002_3"/>
<feBlend mode="normal" in="SourceGraphic" in2="effect6_dropShadow_1002_3" result="shape"/>
</filter>
</defs>
</svg>
